<mxfile host="app.diagrams.net" modified="2021-09-04T11:01:30.699Z" agent="5.0 (Windows NT 10.0; Win64; x64) AppleWebKit/537.36 (KHTML, like Gecko) Chrome/92.0.4515.159 Safari/537.36" etag="WaPh_Gznp1xJxiIry3y7" version="14.0.4" type="github">
  <diagram name="Page-1" id="e7e014a7-5840-1c2e-5031-d8a46d1fe8dd">
    <mxGraphModel dx="2250" dy="1574" grid="1" gridSize="10" guides="1" tooltips="1" connect="1" arrows="1" fold="1" page="1" pageScale="1" pageWidth="1169" pageHeight="826" background="none" math="0" shadow="0">
      <root>
        <mxCell id="0" />
        <mxCell id="1" parent="0" />
        <mxCell id="BIAA3tRsBqz8I-IRi0Bk-136" style="edgeStyle=none;orthogonalLoop=1;jettySize=auto;html=1;exitX=0.5;exitY=0;exitDx=0;exitDy=0;entryX=0.5;entryY=1;entryDx=0;entryDy=0;endArrow=none;" parent="1" source="BIAA3tRsBqz8I-IRi0Bk-1" target="BIAA3tRsBqz8I-IRi0Bk-128" edge="1">
          <mxGeometry relative="1" as="geometry" />
        </mxCell>
        <mxCell id="BIAA3tRsBqz8I-IRi0Bk-182" style="edgeStyle=none;orthogonalLoop=1;jettySize=auto;html=1;exitX=0.5;exitY=0;exitDx=0;exitDy=0;entryX=0.5;entryY=1;entryDx=0;entryDy=0;fontColor=#007FFF;endArrow=none;" parent="1" source="BIAA3tRsBqz8I-IRi0Bk-1" target="BIAA3tRsBqz8I-IRi0Bk-129" edge="1">
          <mxGeometry relative="1" as="geometry" />
        </mxCell>
        <mxCell id="BIAA3tRsBqz8I-IRi0Bk-184" style="edgeStyle=none;orthogonalLoop=1;jettySize=auto;html=1;exitX=0.5;exitY=0;exitDx=0;exitDy=0;entryX=1;entryY=0.5;entryDx=0;entryDy=0;fontColor=#007FFF;endArrow=none;" parent="1" source="BIAA3tRsBqz8I-IRi0Bk-1" target="BIAA3tRsBqz8I-IRi0Bk-27" edge="1">
          <mxGeometry relative="1" as="geometry" />
        </mxCell>
        <mxCell id="BIAA3tRsBqz8I-IRi0Bk-187" style="edgeStyle=none;orthogonalLoop=1;jettySize=auto;html=1;exitX=0.5;exitY=0;exitDx=0;exitDy=0;entryX=1;entryY=0.5;entryDx=0;entryDy=0;fontColor=#007FFF;endArrow=none;" parent="1" source="BIAA3tRsBqz8I-IRi0Bk-1" target="BIAA3tRsBqz8I-IRi0Bk-26" edge="1">
          <mxGeometry relative="1" as="geometry" />
        </mxCell>
        <mxCell id="BIAA3tRsBqz8I-IRi0Bk-188" style="edgeStyle=none;orthogonalLoop=1;jettySize=auto;html=1;exitX=0.5;exitY=0;exitDx=0;exitDy=0;entryX=0.5;entryY=1;entryDx=0;entryDy=0;fontColor=#007FFF;endArrow=none;" parent="1" source="BIAA3tRsBqz8I-IRi0Bk-1" target="BIAA3tRsBqz8I-IRi0Bk-130" edge="1">
          <mxGeometry relative="1" as="geometry" />
        </mxCell>
        <mxCell id="BIAA3tRsBqz8I-IRi0Bk-189" style="edgeStyle=none;orthogonalLoop=1;jettySize=auto;html=1;exitX=0.5;exitY=0;exitDx=0;exitDy=0;entryX=1;entryY=0.5;entryDx=0;entryDy=0;fontColor=#007FFF;endArrow=none;" parent="1" source="BIAA3tRsBqz8I-IRi0Bk-1" target="BIAA3tRsBqz8I-IRi0Bk-6" edge="1">
          <mxGeometry relative="1" as="geometry" />
        </mxCell>
        <mxCell id="BIAA3tRsBqz8I-IRi0Bk-190" style="edgeStyle=none;orthogonalLoop=1;jettySize=auto;html=1;exitX=0.5;exitY=0;exitDx=0;exitDy=0;entryX=0.5;entryY=1;entryDx=0;entryDy=0;fontColor=#007FFF;endArrow=none;" parent="1" source="BIAA3tRsBqz8I-IRi0Bk-1" target="BIAA3tRsBqz8I-IRi0Bk-127" edge="1">
          <mxGeometry relative="1" as="geometry" />
        </mxCell>
        <mxCell id="BIAA3tRsBqz8I-IRi0Bk-1" value="CUSTOMER" style="rounded=0;whiteSpace=wrap;html=1;" parent="1" vertex="1">
          <mxGeometry x="-50" y="260" width="120" height="60" as="geometry" />
        </mxCell>
        <mxCell id="BIAA3tRsBqz8I-IRi0Bk-2" style="edgeStyle=orthogonalEdgeStyle;rounded=0;orthogonalLoop=1;jettySize=auto;html=1;exitX=1;exitY=0.5;exitDx=0;exitDy=0;" parent="1" source="BIAA3tRsBqz8I-IRi0Bk-3" target="BIAA3tRsBqz8I-IRi0Bk-1" edge="1">
          <mxGeometry relative="1" as="geometry">
            <Array as="points">
              <mxPoint x="-80" y="296" />
              <mxPoint x="-80" y="296" />
            </Array>
          </mxGeometry>
        </mxCell>
        <mxCell id="BIAA3tRsBqz8I-IRi0Bk-219" style="edgeStyle=none;orthogonalLoop=1;jettySize=auto;html=1;exitX=0;exitY=0.5;exitDx=0;exitDy=0;entryX=1;entryY=0.5;entryDx=0;entryDy=0;fontColor=#007FFF;endArrow=none;" parent="1" source="BIAA3tRsBqz8I-IRi0Bk-3" target="BIAA3tRsBqz8I-IRi0Bk-5" edge="1">
          <mxGeometry relative="1" as="geometry" />
        </mxCell>
        <mxCell id="BIAA3tRsBqz8I-IRi0Bk-3" value="HAS" style="rhombus;whiteSpace=wrap;html=1;" parent="1" vertex="1">
          <mxGeometry x="-185" y="266" width="60" height="61" as="geometry" />
        </mxCell>
        <mxCell id="BIAA3tRsBqz8I-IRi0Bk-220" style="edgeStyle=none;orthogonalLoop=1;jettySize=auto;html=1;exitX=0.5;exitY=0;exitDx=0;exitDy=0;entryX=0.5;entryY=1;entryDx=0;entryDy=0;fontColor=#007FFF;endArrow=none;" parent="1" source="BIAA3tRsBqz8I-IRi0Bk-5" target="BIAA3tRsBqz8I-IRi0Bk-33" edge="1">
          <mxGeometry relative="1" as="geometry" />
        </mxCell>
        <mxCell id="BIAA3tRsBqz8I-IRi0Bk-221" style="edgeStyle=none;orthogonalLoop=1;jettySize=auto;html=1;exitX=0.5;exitY=0;exitDx=0;exitDy=0;entryX=0.5;entryY=1;entryDx=0;entryDy=0;fontColor=#007FFF;endArrow=none;" parent="1" source="BIAA3tRsBqz8I-IRi0Bk-5" target="BIAA3tRsBqz8I-IRi0Bk-31" edge="1">
          <mxGeometry relative="1" as="geometry" />
        </mxCell>
        <mxCell id="BIAA3tRsBqz8I-IRi0Bk-5" value="CREDIT_CARD" style="rounded=0;whiteSpace=wrap;html=1;" parent="1" vertex="1">
          <mxGeometry x="-442.75" y="267" width="120" height="60" as="geometry" />
        </mxCell>
        <mxCell id="BIAA3tRsBqz8I-IRi0Bk-6" value="&lt;u&gt;ID&lt;/u&gt;" style="ellipse;whiteSpace=wrap;html=1;" parent="1" vertex="1">
          <mxGeometry x="-210" y="225" width="50" height="20" as="geometry" />
        </mxCell>
        <mxCell id="BIAA3tRsBqz8I-IRi0Bk-154" style="edgeStyle=none;orthogonalLoop=1;jettySize=auto;html=1;exitX=1;exitY=0.5;exitDx=0;exitDy=0;entryX=0;entryY=0.5;entryDx=0;entryDy=0;endArrow=none;" parent="1" source="BIAA3tRsBqz8I-IRi0Bk-7" target="BIAA3tRsBqz8I-IRi0Bk-153" edge="1">
          <mxGeometry relative="1" as="geometry" />
        </mxCell>
        <mxCell id="BIAA3tRsBqz8I-IRi0Bk-7" value="PRODUCT" style="rounded=0;whiteSpace=wrap;html=1;" parent="1" vertex="1">
          <mxGeometry x="900" y="467.5" width="120" height="60" as="geometry" />
        </mxCell>
        <mxCell id="BIAA3tRsBqz8I-IRi0Bk-152" style="edgeStyle=none;orthogonalLoop=1;jettySize=auto;html=1;exitX=0.75;exitY=0;exitDx=0;exitDy=0;entryX=0.5;entryY=1;entryDx=0;entryDy=0;endArrow=none;" parent="1" source="BIAA3tRsBqz8I-IRi0Bk-8" target="BIAA3tRsBqz8I-IRi0Bk-151" edge="1">
          <mxGeometry relative="1" as="geometry" />
        </mxCell>
        <mxCell id="BIAA3tRsBqz8I-IRi0Bk-8" value="SHOP" style="rounded=0;whiteSpace=wrap;html=1;" parent="1" vertex="1">
          <mxGeometry x="900" y="260" width="120" height="60" as="geometry" />
        </mxCell>
        <mxCell id="BIAA3tRsBqz8I-IRi0Bk-9" value="SELLS" style="rhombus;whiteSpace=wrap;html=1;" parent="1" vertex="1">
          <mxGeometry x="920" y="360" width="80" height="80" as="geometry" />
        </mxCell>
        <mxCell id="BIAA3tRsBqz8I-IRi0Bk-10" value="" style="endArrow=none;html=1;entryX=0.5;entryY=1;entryDx=0;entryDy=0;exitX=0.5;exitY=0;exitDx=0;exitDy=0;" parent="1" source="BIAA3tRsBqz8I-IRi0Bk-9" target="BIAA3tRsBqz8I-IRi0Bk-8" edge="1">
          <mxGeometry width="50" height="50" relative="1" as="geometry">
            <mxPoint x="940" y="350" as="sourcePoint" />
            <mxPoint x="990" y="300" as="targetPoint" />
          </mxGeometry>
        </mxCell>
        <mxCell id="BIAA3tRsBqz8I-IRi0Bk-11" value="" style="endArrow=none;html=1;entryX=0.5;entryY=1;entryDx=0;entryDy=0;exitX=0.5;exitY=0;exitDx=0;exitDy=0;" parent="1" source="BIAA3tRsBqz8I-IRi0Bk-7" target="BIAA3tRsBqz8I-IRi0Bk-9" edge="1">
          <mxGeometry width="50" height="50" relative="1" as="geometry">
            <mxPoint x="950" y="470" as="sourcePoint" />
            <mxPoint x="1000" y="420" as="targetPoint" />
          </mxGeometry>
        </mxCell>
        <mxCell id="BIAA3tRsBqz8I-IRi0Bk-12" value="&lt;font color=&quot;#007fff&quot;&gt;BELONGS_TO&lt;/font&gt;" style="rhombus;whiteSpace=wrap;html=1;" parent="1" vertex="1">
          <mxGeometry x="905" y="540" width="110" height="100" as="geometry" />
        </mxCell>
        <mxCell id="BIAA3tRsBqz8I-IRi0Bk-13" value="PRODUCT_TYPE" style="rounded=0;whiteSpace=wrap;html=1;" parent="1" vertex="1">
          <mxGeometry x="900" y="670" width="120" height="60" as="geometry" />
        </mxCell>
        <mxCell id="BIAA3tRsBqz8I-IRi0Bk-15" value="" style="endArrow=none;html=1;exitX=0.5;exitY=0;exitDx=0;exitDy=0;entryX=0.5;entryY=1;entryDx=0;entryDy=0;" parent="1" source="BIAA3tRsBqz8I-IRi0Bk-12" target="BIAA3tRsBqz8I-IRi0Bk-7" edge="1">
          <mxGeometry width="50" height="50" relative="1" as="geometry">
            <mxPoint x="970" y="690" as="sourcePoint" />
            <mxPoint x="970" y="650" as="targetPoint" />
          </mxGeometry>
        </mxCell>
        <mxCell id="BIAA3tRsBqz8I-IRi0Bk-18" value="&lt;font color=&quot;#007fff&quot;&gt;HIERARCHY&lt;/font&gt;" style="rhombus;whiteSpace=wrap;html=1;" parent="1" vertex="1">
          <mxGeometry x="920" y="765" width="90" height="90" as="geometry" />
        </mxCell>
        <mxCell id="BIAA3tRsBqz8I-IRi0Bk-19" value="" style="endArrow=none;html=1;exitX=0;exitY=0.75;exitDx=0;exitDy=0;entryX=0;entryY=0.5;entryDx=0;entryDy=0;" parent="1" source="BIAA3tRsBqz8I-IRi0Bk-13" target="BIAA3tRsBqz8I-IRi0Bk-18" edge="1">
          <mxGeometry width="50" height="50" relative="1" as="geometry">
            <mxPoint x="829.2893218813452" y="750" as="sourcePoint" />
            <mxPoint x="829.2893218813452" y="700" as="targetPoint" />
            <Array as="points">
              <mxPoint x="860" y="715" />
              <mxPoint x="860" y="760" />
              <mxPoint x="860" y="810" />
            </Array>
          </mxGeometry>
        </mxCell>
        <mxCell id="BIAA3tRsBqz8I-IRi0Bk-20" value="Child&lt;br&gt;(0,1)" style="text;html=1;align=center;verticalAlign=middle;resizable=0;points=[];autosize=1;strokeColor=none;fillColor=none;fontColor=#007FFF;" parent="1" vertex="1">
          <mxGeometry x="820" y="745" width="40" height="30" as="geometry" />
        </mxCell>
        <mxCell id="BIAA3tRsBqz8I-IRi0Bk-21" value="Parent&lt;br&gt;(0, N)" style="text;html=1;align=center;verticalAlign=middle;resizable=0;points=[];autosize=1;strokeColor=none;fillColor=none;fontColor=#007FFF;" parent="1" vertex="1">
          <mxGeometry x="1056" y="745" width="50" height="30" as="geometry" />
        </mxCell>
        <mxCell id="BIAA3tRsBqz8I-IRi0Bk-22" value="RESTRICTED_TO" style="rhombus;whiteSpace=wrap;html=1;" parent="1" vertex="1">
          <mxGeometry x="770" y="540" width="120" height="100" as="geometry" />
        </mxCell>
        <mxCell id="BIAA3tRsBqz8I-IRi0Bk-23" value="&amp;gt;=1&lt;br&gt;" style="text;html=1;align=center;verticalAlign=middle;resizable=0;points=[];autosize=1;strokeColor=none;fillColor=none;" parent="1" vertex="1">
          <mxGeometry x="-115" y="275" width="40" height="20" as="geometry" />
        </mxCell>
        <mxCell id="BIAA3tRsBqz8I-IRi0Bk-24" value="" style="endArrow=none;html=1;entryX=0.5;entryY=1;entryDx=0;entryDy=0;exitX=0;exitY=0.5;exitDx=0;exitDy=0;" parent="1" source="BIAA3tRsBqz8I-IRi0Bk-13" target="BIAA3tRsBqz8I-IRi0Bk-22" edge="1">
          <mxGeometry width="50" height="50" relative="1" as="geometry">
            <mxPoint x="700" y="630" as="sourcePoint" />
            <mxPoint x="750" y="580" as="targetPoint" />
            <Array as="points">
              <mxPoint x="830" y="700" />
            </Array>
          </mxGeometry>
        </mxCell>
        <mxCell id="BIAA3tRsBqz8I-IRi0Bk-25" value="" style="endArrow=none;html=1;entryX=0;entryY=0.5;entryDx=0;entryDy=0;exitX=0.5;exitY=0;exitDx=0;exitDy=0;edgeStyle=orthogonalEdgeStyle;" parent="1" source="BIAA3tRsBqz8I-IRi0Bk-22" target="BIAA3tRsBqz8I-IRi0Bk-8" edge="1">
          <mxGeometry width="50" height="50" relative="1" as="geometry">
            <mxPoint x="800" y="480" as="sourcePoint" />
            <mxPoint x="850" y="430" as="targetPoint" />
          </mxGeometry>
        </mxCell>
        <mxCell id="BIAA3tRsBqz8I-IRi0Bk-26" value="Username" style="ellipse;whiteSpace=wrap;html=1;" parent="1" vertex="1">
          <mxGeometry x="-220" y="185" width="70" height="30" as="geometry" />
        </mxCell>
        <mxCell id="BIAA3tRsBqz8I-IRi0Bk-27" value="Email" style="ellipse;whiteSpace=wrap;html=1;" parent="1" vertex="1">
          <mxGeometry x="-140" y="175" width="60" height="20" as="geometry" />
        </mxCell>
        <mxCell id="BIAA3tRsBqz8I-IRi0Bk-31" value="&lt;u&gt;Card_num&lt;/u&gt;" style="ellipse;whiteSpace=wrap;html=1;" parent="1" vertex="1">
          <mxGeometry x="-475" y="190" width="70" height="40" as="geometry" />
        </mxCell>
        <mxCell id="BIAA3tRsBqz8I-IRi0Bk-33" value="Name" style="ellipse;whiteSpace=wrap;html=1;" parent="1" vertex="1">
          <mxGeometry x="-382.75" y="195" width="60" height="30" as="geometry" />
        </mxCell>
        <mxCell id="BIAA3tRsBqz8I-IRi0Bk-37" value="&lt;u&gt;Shop_ID&lt;/u&gt;" style="ellipse;whiteSpace=wrap;html=1;rounded=0;" parent="1" vertex="1">
          <mxGeometry x="860" y="160" width="80" height="40" as="geometry" />
        </mxCell>
        <mxCell id="BIAA3tRsBqz8I-IRi0Bk-38" value="" style="endArrow=none;html=1;entryX=0.392;entryY=1;entryDx=0;entryDy=0;entryPerimeter=0;" parent="1" target="BIAA3tRsBqz8I-IRi0Bk-37" edge="1">
          <mxGeometry width="50" height="50" relative="1" as="geometry">
            <mxPoint x="940" y="260" as="sourcePoint" />
            <mxPoint x="980" y="210" as="targetPoint" />
          </mxGeometry>
        </mxCell>
        <mxCell id="BIAA3tRsBqz8I-IRi0Bk-39" value="Name" style="ellipse;whiteSpace=wrap;html=1;" parent="1" vertex="1">
          <mxGeometry x="1080" y="383" width="50" height="30" as="geometry" />
        </mxCell>
        <mxCell id="BIAA3tRsBqz8I-IRi0Bk-40" value="Color" style="ellipse;whiteSpace=wrap;html=1;" parent="1" vertex="1">
          <mxGeometry x="1210" y="410" width="50" height="30" as="geometry" />
        </mxCell>
        <mxCell id="BIAA3tRsBqz8I-IRi0Bk-41" value="Description" style="ellipse;whiteSpace=wrap;html=1;" parent="1" vertex="1">
          <mxGeometry x="1190" y="537.5" width="70" height="40" as="geometry" />
        </mxCell>
        <mxCell id="BIAA3tRsBqz8I-IRi0Bk-42" value="Size" style="ellipse;whiteSpace=wrap;html=1;" parent="1" vertex="1">
          <mxGeometry x="1210" y="450" width="50" height="30" as="geometry" />
        </mxCell>
        <mxCell id="BIAA3tRsBqz8I-IRi0Bk-43" value="&lt;u&gt;&lt;font color=&quot;#ff0000&quot;&gt;ID&lt;/font&gt;&lt;/u&gt;" style="ellipse;whiteSpace=wrap;html=1;" parent="1" vertex="1">
          <mxGeometry x="1160" y="385" width="50" height="30" as="geometry" />
        </mxCell>
        <mxCell id="BIAA3tRsBqz8I-IRi0Bk-44" value="&lt;font color=&quot;#ff3333&quot;&gt;Product ID is an assumption&lt;/font&gt;" style="shape=note;strokeWidth=2;fontSize=14;size=20;whiteSpace=wrap;html=1;fillColor=#fff2cc;strokeColor=#d6b656;fontColor=#666600;" parent="1" vertex="1">
          <mxGeometry x="1250" y="300" width="110.00000000000001" height="80" as="geometry" />
        </mxCell>
        <mxCell id="BIAA3tRsBqz8I-IRi0Bk-45" value="" style="endArrow=none;html=1;entryX=0;entryY=0.5;entryDx=0;entryDy=0;exitX=1;exitY=0.5;exitDx=0;exitDy=0;" parent="1" source="BIAA3tRsBqz8I-IRi0Bk-7" target="BIAA3tRsBqz8I-IRi0Bk-39" edge="1">
          <mxGeometry width="50" height="50" relative="1" as="geometry">
            <mxPoint x="980" y="490" as="sourcePoint" />
            <mxPoint x="1030" y="440" as="targetPoint" />
          </mxGeometry>
        </mxCell>
        <mxCell id="BIAA3tRsBqz8I-IRi0Bk-46" value="" style="endArrow=none;html=1;exitX=1;exitY=0.5;exitDx=0;exitDy=0;entryX=0;entryY=0.5;entryDx=0;entryDy=0;" parent="1" source="BIAA3tRsBqz8I-IRi0Bk-7" target="BIAA3tRsBqz8I-IRi0Bk-43" edge="1">
          <mxGeometry width="50" height="50" relative="1" as="geometry">
            <mxPoint x="1080" y="510" as="sourcePoint" />
            <mxPoint x="1130" y="460" as="targetPoint" />
          </mxGeometry>
        </mxCell>
        <mxCell id="BIAA3tRsBqz8I-IRi0Bk-47" value="" style="endArrow=none;html=1;entryX=0;entryY=0.5;entryDx=0;entryDy=0;exitX=1;exitY=0.5;exitDx=0;exitDy=0;" parent="1" source="BIAA3tRsBqz8I-IRi0Bk-7" target="BIAA3tRsBqz8I-IRi0Bk-40" edge="1">
          <mxGeometry width="50" height="50" relative="1" as="geometry">
            <mxPoint x="1020" y="500" as="sourcePoint" />
            <mxPoint x="1170" y="410" as="targetPoint" />
          </mxGeometry>
        </mxCell>
        <mxCell id="BIAA3tRsBqz8I-IRi0Bk-48" value="" style="endArrow=none;html=1;entryX=0;entryY=1;entryDx=0;entryDy=0;exitX=1;exitY=0.5;exitDx=0;exitDy=0;" parent="1" source="BIAA3tRsBqz8I-IRi0Bk-7" target="BIAA3tRsBqz8I-IRi0Bk-42" edge="1">
          <mxGeometry width="50" height="50" relative="1" as="geometry">
            <mxPoint x="1030" y="510" as="sourcePoint" />
            <mxPoint x="1130" y="475" as="targetPoint" />
          </mxGeometry>
        </mxCell>
        <mxCell id="BIAA3tRsBqz8I-IRi0Bk-49" value="" style="endArrow=none;html=1;exitX=1;exitY=0.5;exitDx=0;exitDy=0;" parent="1" source="BIAA3tRsBqz8I-IRi0Bk-7" target="BIAA3tRsBqz8I-IRi0Bk-41" edge="1">
          <mxGeometry width="50" height="50" relative="1" as="geometry">
            <mxPoint x="1030" y="500" as="sourcePoint" />
            <mxPoint x="1197.322330470336" y="475.6066017177984" as="targetPoint" />
          </mxGeometry>
        </mxCell>
        <mxCell id="BIAA3tRsBqz8I-IRi0Bk-50" value="&lt;u&gt;ID&lt;/u&gt;" style="ellipse;whiteSpace=wrap;html=1;" parent="1" vertex="1">
          <mxGeometry x="1070" y="630" width="50" height="30" as="geometry" />
        </mxCell>
        <mxCell id="BIAA3tRsBqz8I-IRi0Bk-51" value="" style="endArrow=none;html=1;entryX=0;entryY=0.5;entryDx=0;entryDy=0;exitX=1;exitY=0.25;exitDx=0;exitDy=0;" parent="1" source="BIAA3tRsBqz8I-IRi0Bk-13" target="BIAA3tRsBqz8I-IRi0Bk-50" edge="1">
          <mxGeometry width="50" height="50" relative="1" as="geometry">
            <mxPoint x="1040" y="670" as="sourcePoint" />
            <mxPoint x="1090" y="595" as="targetPoint" />
          </mxGeometry>
        </mxCell>
        <mxCell id="BIAA3tRsBqz8I-IRi0Bk-52" value="Description" style="ellipse;whiteSpace=wrap;html=1;" parent="1" vertex="1">
          <mxGeometry x="1110" y="660" width="80" height="40" as="geometry" />
        </mxCell>
        <mxCell id="BIAA3tRsBqz8I-IRi0Bk-53" value="" style="endArrow=none;html=1;entryX=0;entryY=0.5;entryDx=0;entryDy=0;exitX=1;exitY=0.25;exitDx=0;exitDy=0;" parent="1" source="BIAA3tRsBqz8I-IRi0Bk-13" target="BIAA3tRsBqz8I-IRi0Bk-52" edge="1">
          <mxGeometry width="50" height="50" relative="1" as="geometry">
            <mxPoint x="1030" y="695" as="sourcePoint" />
            <mxPoint x="1080" y="655" as="targetPoint" />
          </mxGeometry>
        </mxCell>
        <mxCell id="BIAA3tRsBqz8I-IRi0Bk-54" value="Photos" style="ellipse;whiteSpace=wrap;html=1;" parent="1" vertex="1">
          <mxGeometry x="1130" y="562.5" width="50" height="30" as="geometry" />
        </mxCell>
        <mxCell id="BIAA3tRsBqz8I-IRi0Bk-55" value="" style="endArrow=none;html=1;exitX=1;exitY=0.5;exitDx=0;exitDy=0;entryX=0;entryY=0.5;entryDx=0;entryDy=0;" parent="1" source="BIAA3tRsBqz8I-IRi0Bk-7" target="BIAA3tRsBqz8I-IRi0Bk-54" edge="1">
          <mxGeometry width="50" height="50" relative="1" as="geometry">
            <mxPoint x="1030" y="510" as="sourcePoint" />
            <mxPoint x="1180" y="510" as="targetPoint" />
          </mxGeometry>
        </mxCell>
        <mxCell id="BIAA3tRsBqz8I-IRi0Bk-165" style="edgeStyle=none;orthogonalLoop=1;jettySize=auto;html=1;entryX=1;entryY=1;entryDx=0;entryDy=0;fontColor=#007FFF;endArrow=none;exitX=0;exitY=0.5;exitDx=0;exitDy=0;" parent="1" source="BIAA3tRsBqz8I-IRi0Bk-59" target="BIAA3tRsBqz8I-IRi0Bk-163" edge="1">
          <mxGeometry relative="1" as="geometry" />
        </mxCell>
        <mxCell id="BIAA3tRsBqz8I-IRi0Bk-59" value="ORDER" style="rounded=0;whiteSpace=wrap;html=1;" parent="1" vertex="1">
          <mxGeometry x="-50" y="470" width="120" height="60" as="geometry" />
        </mxCell>
        <mxCell id="BIAA3tRsBqz8I-IRi0Bk-60" value="PLACES" style="rhombus;whiteSpace=wrap;html=1;" parent="1" vertex="1">
          <mxGeometry x="-25" y="360" width="70" height="60" as="geometry" />
        </mxCell>
        <mxCell id="BIAA3tRsBqz8I-IRi0Bk-63" value="" style="endArrow=none;html=1;exitX=0.5;exitY=0;exitDx=0;exitDy=0;entryX=0.5;entryY=1;entryDx=0;entryDy=0;" parent="1" source="BIAA3tRsBqz8I-IRi0Bk-59" target="BIAA3tRsBqz8I-IRi0Bk-60" edge="1">
          <mxGeometry width="50" height="50" relative="1" as="geometry">
            <mxPoint x="-10" y="520" as="sourcePoint" />
            <mxPoint x="40" y="470" as="targetPoint" />
          </mxGeometry>
        </mxCell>
        <mxCell id="BIAA3tRsBqz8I-IRi0Bk-64" value="Status" style="ellipse;whiteSpace=wrap;html=1;" parent="1" vertex="1">
          <mxGeometry x="-162.5" y="467.5" width="55" height="20" as="geometry" />
        </mxCell>
        <mxCell id="BIAA3tRsBqz8I-IRi0Bk-65" value="" style="endArrow=none;html=1;entryX=1;entryY=0.5;entryDx=0;entryDy=0;exitX=0;exitY=0.5;exitDx=0;exitDy=0;" parent="1" source="BIAA3tRsBqz8I-IRi0Bk-59" target="BIAA3tRsBqz8I-IRi0Bk-64" edge="1">
          <mxGeometry width="50" height="50" relative="1" as="geometry">
            <mxPoint x="-140" y="620" as="sourcePoint" />
            <mxPoint x="-90" y="570" as="targetPoint" />
          </mxGeometry>
        </mxCell>
        <mxCell id="BIAA3tRsBqz8I-IRi0Bk-66" value="&lt;font color=&quot;#007fff&quot; style=&quot;font-size: 12px&quot;&gt;Name is extra info&lt;/font&gt;" style="shape=note;strokeWidth=2;fontSize=14;size=20;whiteSpace=wrap;html=1;fillColor=#fff2cc;strokeColor=#d6b656;fontColor=#666600;" parent="1" vertex="1">
          <mxGeometry x="-360" y="130" width="105" height="45" as="geometry" />
        </mxCell>
        <mxCell id="BIAA3tRsBqz8I-IRi0Bk-67" value="&lt;font color=&quot;#007fff&quot; style=&quot;font-size: 12px&quot;&gt;Sequence_num can be null and thus insufficient to uniquely identify ORDER_ITEM, so we make ORDER_ITEM a weak entity set&lt;/font&gt;" style="shape=note;strokeWidth=2;fontSize=14;size=20;whiteSpace=wrap;html=1;fillColor=#fff2cc;strokeColor=#d6b656;fontColor=#666600;" parent="1" vertex="1">
          <mxGeometry x="470" y="-50" width="180" height="87.5" as="geometry" />
        </mxCell>
        <mxCell id="BIAA3tRsBqz8I-IRi0Bk-68" value="&lt;u&gt;Sequence_num&lt;/u&gt;" style="ellipse;whiteSpace=wrap;html=1;" parent="1" vertex="1">
          <mxGeometry x="300" y="275" width="110" height="52" as="geometry" />
        </mxCell>
        <mxCell id="BIAA3tRsBqz8I-IRi0Bk-72" value="" style="edgeStyle=none;rounded=0;orthogonalLoop=1;jettySize=auto;html=1;endArrow=none;endFill=0;" parent="1" target="BIAA3tRsBqz8I-IRi0Bk-68" edge="1">
          <mxGeometry relative="1" as="geometry">
            <mxPoint x="341.71688960507163" y="475" as="sourcePoint" />
          </mxGeometry>
        </mxCell>
        <mxCell id="BIAA3tRsBqz8I-IRi0Bk-74" style="edgeStyle=orthogonalEdgeStyle;rounded=0;orthogonalLoop=1;jettySize=auto;html=1;exitX=1;exitY=0.5;exitDx=0;exitDy=0;endArrow=none;endFill=0;" parent="1" target="BIAA3tRsBqz8I-IRi0Bk-79" edge="1">
          <mxGeometry relative="1" as="geometry">
            <mxPoint x="390" y="497.5" as="sourcePoint" />
          </mxGeometry>
        </mxCell>
        <mxCell id="BIAA3tRsBqz8I-IRi0Bk-172" style="edgeStyle=none;orthogonalLoop=1;jettySize=auto;html=1;entryX=0.5;entryY=1;entryDx=0;entryDy=0;fontColor=#007FFF;endArrow=none;" parent="1" target="BIAA3tRsBqz8I-IRi0Bk-169" edge="1">
          <mxGeometry relative="1" as="geometry">
            <mxPoint x="353.07432432432415" y="475" as="sourcePoint" />
          </mxGeometry>
        </mxCell>
        <mxCell id="BIAA3tRsBqz8I-IRi0Bk-173" style="edgeStyle=none;orthogonalLoop=1;jettySize=auto;html=1;exitX=0.75;exitY=0;exitDx=0;exitDy=0;entryX=0.5;entryY=1;entryDx=0;entryDy=0;fontColor=#007FFF;endArrow=none;" parent="1" target="BIAA3tRsBqz8I-IRi0Bk-77" edge="1">
          <mxGeometry relative="1" as="geometry">
            <mxPoint x="365" y="475" as="sourcePoint" />
          </mxGeometry>
        </mxCell>
        <mxCell id="BIAA3tRsBqz8I-IRi0Bk-174" style="edgeStyle=none;orthogonalLoop=1;jettySize=auto;html=1;exitX=0.25;exitY=0;exitDx=0;exitDy=0;entryX=0.5;entryY=1;entryDx=0;entryDy=0;fontColor=#007FFF;endArrow=none;" parent="1" target="BIAA3tRsBqz8I-IRi0Bk-167" edge="1">
          <mxGeometry relative="1" as="geometry">
            <mxPoint x="315" y="475" as="sourcePoint" />
          </mxGeometry>
        </mxCell>
        <mxCell id="BIAA3tRsBqz8I-IRi0Bk-191" style="edgeStyle=none;orthogonalLoop=1;jettySize=auto;html=1;entryX=0.5;entryY=1;entryDx=0;entryDy=0;fontColor=#007FFF;endArrow=none;" parent="1" target="BIAA3tRsBqz8I-IRi0Bk-168" edge="1">
          <mxGeometry relative="1" as="geometry">
            <mxPoint x="332.89473684210543" y="475" as="sourcePoint" />
          </mxGeometry>
        </mxCell>
        <mxCell id="BIAA3tRsBqz8I-IRi0Bk-77" value="Order_price" style="ellipse;whiteSpace=wrap;html=1;fillColor=#FFFFFF;" parent="1" vertex="1">
          <mxGeometry x="460" y="308" width="90" height="36" as="geometry" />
        </mxCell>
        <mxCell id="BIAA3tRsBqz8I-IRi0Bk-78" style="edgeStyle=orthogonalEdgeStyle;rounded=0;orthogonalLoop=1;jettySize=auto;html=1;exitX=1;exitY=0.5;exitDx=0;exitDy=0;entryX=0;entryY=0.5;entryDx=0;entryDy=0;endArrow=none;endFill=0;" parent="1" source="BIAA3tRsBqz8I-IRi0Bk-79" target="BIAA3tRsBqz8I-IRi0Bk-7" edge="1">
          <mxGeometry relative="1" as="geometry" />
        </mxCell>
        <mxCell id="BIAA3tRsBqz8I-IRi0Bk-79" value="Is-a" style="triangle;whiteSpace=wrap;html=1;strokeColor=#000000;fillColor=#FFFFFF;" parent="1" vertex="1">
          <mxGeometry x="555" y="457.5" width="55" height="80" as="geometry" />
        </mxCell>
        <mxCell id="BIAA3tRsBqz8I-IRi0Bk-81" value="ISSUES" style="rhombus;whiteSpace=wrap;html=1;rounded=0;" parent="1" vertex="1">
          <mxGeometry x="-30" y="580" width="80" height="80" as="geometry" />
        </mxCell>
        <mxCell id="BIAA3tRsBqz8I-IRi0Bk-82" value="" style="edgeStyle=orthogonalEdgeStyle;rounded=0;orthogonalLoop=1;jettySize=auto;html=1;endArrow=none;endFill=0;" parent="1" source="BIAA3tRsBqz8I-IRi0Bk-86" target="BIAA3tRsBqz8I-IRi0Bk-89" edge="1">
          <mxGeometry relative="1" as="geometry" />
        </mxCell>
        <mxCell id="BIAA3tRsBqz8I-IRi0Bk-175" style="edgeStyle=none;orthogonalLoop=1;jettySize=auto;html=1;exitX=0.5;exitY=1;exitDx=0;exitDy=0;entryX=0.5;entryY=0;entryDx=0;entryDy=0;fontColor=#007FFF;endArrow=none;" parent="1" source="BIAA3tRsBqz8I-IRi0Bk-86" target="BIAA3tRsBqz8I-IRi0Bk-97" edge="1">
          <mxGeometry relative="1" as="geometry" />
        </mxCell>
        <mxCell id="BIAA3tRsBqz8I-IRi0Bk-176" style="edgeStyle=none;orthogonalLoop=1;jettySize=auto;html=1;entryX=0.5;entryY=0;entryDx=0;entryDy=0;fontColor=#007FFF;endArrow=none;" parent="1" source="BIAA3tRsBqz8I-IRi0Bk-86" target="BIAA3tRsBqz8I-IRi0Bk-96" edge="1">
          <mxGeometry relative="1" as="geometry" />
        </mxCell>
        <mxCell id="BIAA3tRsBqz8I-IRi0Bk-86" value="INVOICE" style="whiteSpace=wrap;html=1;rounded=0;" parent="1" vertex="1">
          <mxGeometry x="-50" y="720" width="120" height="60" as="geometry" />
        </mxCell>
        <mxCell id="BIAA3tRsBqz8I-IRi0Bk-89" value="&lt;u&gt;number&lt;/u&gt;" style="ellipse;whiteSpace=wrap;html=1;rounded=0;" parent="1" vertex="1">
          <mxGeometry x="-220" y="720" width="120" height="60" as="geometry" />
        </mxCell>
        <mxCell id="BIAA3tRsBqz8I-IRi0Bk-90" value="" style="rounded=0;orthogonalLoop=1;jettySize=auto;html=1;endArrow=none;endFill=0;exitX=1;exitY=0.5;exitDx=0;exitDy=0;" parent="1" source="BIAA3tRsBqz8I-IRi0Bk-95" target="BIAA3tRsBqz8I-IRi0Bk-98" edge="1">
          <mxGeometry relative="1" as="geometry" />
        </mxCell>
        <mxCell id="BIAA3tRsBqz8I-IRi0Bk-92" style="rounded=0;orthogonalLoop=1;jettySize=auto;html=1;exitX=1;exitY=0.5;exitDx=0;exitDy=0;entryX=0;entryY=0;entryDx=0;entryDy=0;endArrow=none;endFill=0;" parent="1" source="BIAA3tRsBqz8I-IRi0Bk-95" target="BIAA3tRsBqz8I-IRi0Bk-116" edge="1">
          <mxGeometry relative="1" as="geometry" />
        </mxCell>
        <mxCell id="BIAA3tRsBqz8I-IRi0Bk-94" value="" style="edgeStyle=none;rounded=0;orthogonalLoop=1;jettySize=auto;html=1;endArrow=none;endFill=0;exitX=1;exitY=0.5;exitDx=0;exitDy=0;" parent="1" source="BIAA3tRsBqz8I-IRi0Bk-95" target="BIAA3tRsBqz8I-IRi0Bk-118" edge="1">
          <mxGeometry relative="1" as="geometry" />
        </mxCell>
        <mxCell id="BIAA3tRsBqz8I-IRi0Bk-95" value="PAYMENT" style="rounded=0;whiteSpace=wrap;html=1;strokeColor=#000000;fillColor=#FFFFFF;" parent="1" vertex="1">
          <mxGeometry x="140" y="840" width="120" height="60" as="geometry" />
        </mxCell>
        <mxCell id="BIAA3tRsBqz8I-IRi0Bk-96" value="Status" style="ellipse;whiteSpace=wrap;html=1;rounded=0;" parent="1" vertex="1">
          <mxGeometry x="20" y="826" width="60" height="24" as="geometry" />
        </mxCell>
        <mxCell id="BIAA3tRsBqz8I-IRi0Bk-97" value="Date" style="ellipse;whiteSpace=wrap;html=1;rounded=0;" parent="1" vertex="1">
          <mxGeometry x="-52.5" y="825" width="57.5" height="25" as="geometry" />
        </mxCell>
        <mxCell id="BIAA3tRsBqz8I-IRi0Bk-98" value="&lt;u&gt;Payment_ID&lt;/u&gt;" style="ellipse;whiteSpace=wrap;html=1;rounded=0;fillColor=#FFFFFF;" parent="1" vertex="1">
          <mxGeometry x="300" y="800" width="80" height="50" as="geometry" />
        </mxCell>
        <mxCell id="BIAA3tRsBqz8I-IRi0Bk-99" value="" style="edgeStyle=orthogonalEdgeStyle;rounded=0;orthogonalLoop=1;jettySize=auto;html=1;endArrow=none;endFill=0;" parent="1" source="BIAA3tRsBqz8I-IRi0Bk-100" target="BIAA3tRsBqz8I-IRi0Bk-95" edge="1">
          <mxGeometry relative="1" as="geometry" />
        </mxCell>
        <mxCell id="BIAA3tRsBqz8I-IRi0Bk-100" value="&lt;font color=&quot;#007fff&quot;&gt;MADE_FOR&lt;/font&gt;" style="rhombus;whiteSpace=wrap;html=1;rounded=0;" parent="1" vertex="1">
          <mxGeometry x="150" y="710" width="100" height="80" as="geometry" />
        </mxCell>
        <mxCell id="BIAA3tRsBqz8I-IRi0Bk-102" value="&amp;gt;= 1" style="text;html=1;align=center;verticalAlign=middle;resizable=0;points=[];autosize=1;strokeColor=none;fillColor=none;" parent="1" vertex="1">
          <mxGeometry x="80" y="720" width="40" height="20" as="geometry" />
        </mxCell>
        <mxCell id="BIAA3tRsBqz8I-IRi0Bk-198" style="edgeStyle=none;orthogonalLoop=1;jettySize=auto;html=1;exitX=1;exitY=0.5;exitDx=0;exitDy=0;entryX=0;entryY=0.5;entryDx=0;entryDy=0;fontColor=#007FFF;endArrow=none;" parent="1" source="BIAA3tRsBqz8I-IRi0Bk-104" target="BIAA3tRsBqz8I-IRi0Bk-105" edge="1">
          <mxGeometry relative="1" as="geometry" />
        </mxCell>
        <mxCell id="BIAA3tRsBqz8I-IRi0Bk-204" style="edgeStyle=none;orthogonalLoop=1;jettySize=auto;html=1;exitX=1;exitY=0.5;exitDx=0;exitDy=0;entryX=0;entryY=0.5;entryDx=0;entryDy=0;fontColor=#007FFF;endArrow=none;" parent="1" source="BIAA3tRsBqz8I-IRi0Bk-104" target="BIAA3tRsBqz8I-IRi0Bk-200" edge="1">
          <mxGeometry relative="1" as="geometry" />
        </mxCell>
        <mxCell id="BIAA3tRsBqz8I-IRi0Bk-205" style="edgeStyle=none;orthogonalLoop=1;jettySize=auto;html=1;exitX=1;exitY=0.5;exitDx=0;exitDy=0;entryX=0;entryY=0.5;entryDx=0;entryDy=0;fontColor=#007FFF;endArrow=none;" parent="1" source="BIAA3tRsBqz8I-IRi0Bk-104" target="BIAA3tRsBqz8I-IRi0Bk-202" edge="1">
          <mxGeometry relative="1" as="geometry" />
        </mxCell>
        <mxCell id="Fr1E9OPYCrHmNysL7G3M-13" style="edgeStyle=orthogonalEdgeStyle;rounded=0;orthogonalLoop=1;jettySize=auto;html=1;exitX=1;exitY=0.5;exitDx=0;exitDy=0;entryX=0;entryY=0.5;entryDx=0;entryDy=0;" edge="1" parent="1" source="BIAA3tRsBqz8I-IRi0Bk-104" target="Fr1E9OPYCrHmNysL7G3M-11">
          <mxGeometry relative="1" as="geometry" />
        </mxCell>
        <mxCell id="BIAA3tRsBqz8I-IRi0Bk-104" value="SHIPMENT" style="rounded=0;whiteSpace=wrap;html=1;strokeColor=#000000;fillColor=#FFFFFF;" parent="1" vertex="1">
          <mxGeometry x="470" y="778.1" width="120" height="60" as="geometry" />
        </mxCell>
        <mxCell id="BIAA3tRsBqz8I-IRi0Bk-105" value="Shipment_ID" style="ellipse;whiteSpace=wrap;html=1;rounded=0;fillColor=#FFFFFF;" parent="1" vertex="1">
          <mxGeometry x="645" y="719.35" width="90" height="42.5" as="geometry" />
        </mxCell>
        <mxCell id="BIAA3tRsBqz8I-IRi0Bk-196" style="edgeStyle=none;orthogonalLoop=1;jettySize=auto;html=1;exitX=1;exitY=0.5;exitDx=0;exitDy=0;entryX=0;entryY=0.5;entryDx=0;entryDy=0;fontColor=#007FFF;endArrow=none;" parent="1" source="BIAA3tRsBqz8I-IRi0Bk-106" target="BIAA3tRsBqz8I-IRi0Bk-59" edge="1">
          <mxGeometry relative="1" as="geometry" />
        </mxCell>
        <mxCell id="BIAA3tRsBqz8I-IRi0Bk-106" value="Is_fully_paid" style="ellipse;whiteSpace=wrap;html=1;rounded=0;fillColor=#FFFFFF;" parent="1" vertex="1">
          <mxGeometry x="-195" y="497.5" width="80" height="27.5" as="geometry" />
        </mxCell>
        <mxCell id="BIAA3tRsBqz8I-IRi0Bk-112" style="edgeStyle=orthogonalEdgeStyle;rounded=0;orthogonalLoop=1;jettySize=auto;html=1;exitX=0;exitY=0.5;exitDx=0;exitDy=0;entryX=0;entryY=0.5;entryDx=0;entryDy=0;endArrow=none;endFill=0;" parent="1" source="BIAA3tRsBqz8I-IRi0Bk-98" target="BIAA3tRsBqz8I-IRi0Bk-98" edge="1">
          <mxGeometry relative="1" as="geometry" />
        </mxCell>
        <mxCell id="BIAA3tRsBqz8I-IRi0Bk-116" value="Amount" style="ellipse;whiteSpace=wrap;html=1;strokeColor=#000000;fillColor=#FFFFFF;" parent="1" vertex="1">
          <mxGeometry x="310" y="920" width="60" height="30" as="geometry" />
        </mxCell>
        <mxCell id="BIAA3tRsBqz8I-IRi0Bk-118" value="Date" style="ellipse;whiteSpace=wrap;html=1;rounded=0;fillColor=#FFFFFF;" parent="1" vertex="1">
          <mxGeometry x="320" y="870" width="40" height="30" as="geometry" />
        </mxCell>
        <mxCell id="BIAA3tRsBqz8I-IRi0Bk-213" style="edgeStyle=none;orthogonalLoop=1;jettySize=auto;html=1;exitX=0;exitY=0.5;exitDx=0;exitDy=0;entryX=1;entryY=0.5;entryDx=0;entryDy=0;fontColor=#007FFF;endArrow=none;" parent="1" source="BIAA3tRsBqz8I-IRi0Bk-120" target="BIAA3tRsBqz8I-IRi0Bk-206" edge="1">
          <mxGeometry relative="1" as="geometry" />
        </mxCell>
        <mxCell id="YEvS3idMorMy7A3DSORb-3" style="edgeStyle=none;orthogonalLoop=1;jettySize=auto;html=1;exitX=0.5;exitY=0;exitDx=0;exitDy=0;entryX=0.5;entryY=1;entryDx=0;entryDy=0;fontColor=#007FFF;endArrow=none;" parent="1" source="BIAA3tRsBqz8I-IRi0Bk-120" target="BIAA3tRsBqz8I-IRi0Bk-228" edge="1">
          <mxGeometry relative="1" as="geometry" />
        </mxCell>
        <mxCell id="YEvS3idMorMy7A3DSORb-5" style="edgeStyle=none;orthogonalLoop=1;jettySize=auto;html=1;exitX=0.5;exitY=1;exitDx=0;exitDy=0;entryX=0.5;entryY=0;entryDx=0;entryDy=0;fontColor=#007FFF;endArrow=none;" parent="1" source="BIAA3tRsBqz8I-IRi0Bk-120" target="YEvS3idMorMy7A3DSORb-4" edge="1">
          <mxGeometry relative="1" as="geometry" />
        </mxCell>
        <mxCell id="YEvS3idMorMy7A3DSORb-6" style="edgeStyle=none;orthogonalLoop=1;jettySize=auto;html=1;exitX=0.5;exitY=1;exitDx=0;exitDy=0;entryX=0.5;entryY=0;entryDx=0;entryDy=0;fontColor=#007FFF;endArrow=none;" parent="1" source="BIAA3tRsBqz8I-IRi0Bk-120" target="BIAA3tRsBqz8I-IRi0Bk-231" edge="1">
          <mxGeometry relative="1" as="geometry" />
        </mxCell>
        <mxCell id="YEvS3idMorMy7A3DSORb-10" style="edgeStyle=none;orthogonalLoop=1;jettySize=auto;html=1;exitX=0;exitY=0.5;exitDx=0;exitDy=0;entryX=1;entryY=0.5;entryDx=0;entryDy=0;fontColor=#007FFF;endArrow=none;" parent="1" source="BIAA3tRsBqz8I-IRi0Bk-120" target="YEvS3idMorMy7A3DSORb-8" edge="1">
          <mxGeometry relative="1" as="geometry" />
        </mxCell>
        <mxCell id="YEvS3idMorMy7A3DSORb-13" style="edgeStyle=none;orthogonalLoop=1;jettySize=auto;html=1;exitX=0.25;exitY=0;exitDx=0;exitDy=0;entryX=1;entryY=0.5;entryDx=0;entryDy=0;fontColor=#007FFF;endArrow=none;" parent="1" source="BIAA3tRsBqz8I-IRi0Bk-120" target="YEvS3idMorMy7A3DSORb-11" edge="1">
          <mxGeometry relative="1" as="geometry" />
        </mxCell>
        <mxCell id="BIAA3tRsBqz8I-IRi0Bk-120" value="PAYMENT_RECORD" style="shape=ext;margin=3;double=1;whiteSpace=wrap;html=1;align=center;strokeColor=#000000;fillColor=#FFFFFF;" parent="1" vertex="1">
          <mxGeometry x="-452.75" y="462.5" width="140" height="45" as="geometry" />
        </mxCell>
        <mxCell id="BIAA3tRsBqz8I-IRi0Bk-127" value="Password" style="ellipse;whiteSpace=wrap;html=1;" parent="1" vertex="1">
          <mxGeometry x="-75" y="155" width="70" height="30" as="geometry" />
        </mxCell>
        <mxCell id="BIAA3tRsBqz8I-IRi0Bk-128" value="Full_name" style="ellipse;whiteSpace=wrap;html=1;" parent="1" vertex="1">
          <mxGeometry x="-5" y="135" width="65" height="30" as="geometry" />
        </mxCell>
        <mxCell id="BIAA3tRsBqz8I-IRi0Bk-129" value="Address" style="ellipse;whiteSpace=wrap;html=1;" parent="1" vertex="1">
          <mxGeometry x="60" y="165" width="60" height="30" as="geometry" />
        </mxCell>
        <mxCell id="BIAA3tRsBqz8I-IRi0Bk-130" value="Phone_num" style="ellipse;whiteSpace=wrap;html=1;" parent="1" vertex="1">
          <mxGeometry x="120" y="185" width="80" height="40" as="geometry" />
        </mxCell>
        <mxCell id="BIAA3tRsBqz8I-IRi0Bk-144" value="" style="group" parent="1" vertex="1" connectable="0">
          <mxGeometry y="530" width="20" height="10" as="geometry" />
        </mxCell>
        <mxCell id="BIAA3tRsBqz8I-IRi0Bk-56" value="" style="edgeStyle=orthogonalEdgeStyle;rounded=0;orthogonalLoop=1;jettySize=auto;html=1;endArrow=none;endFill=0;" parent="BIAA3tRsBqz8I-IRi0Bk-144" source="BIAA3tRsBqz8I-IRi0Bk-59" target="BIAA3tRsBqz8I-IRi0Bk-81" edge="1">
          <mxGeometry relative="1" as="geometry" />
        </mxCell>
        <mxCell id="BIAA3tRsBqz8I-IRi0Bk-87" value="" style="shape=requiredInterface;html=1;verticalLabelPosition=bottom;rotation=-90;" parent="BIAA3tRsBqz8I-IRi0Bk-144" vertex="1">
          <mxGeometry x="5" y="-5" width="10" height="20" as="geometry" />
        </mxCell>
        <mxCell id="BIAA3tRsBqz8I-IRi0Bk-147" value="" style="group" parent="1" vertex="1" connectable="0">
          <mxGeometry y="321" width="20" height="10" as="geometry" />
        </mxCell>
        <mxCell id="BIAA3tRsBqz8I-IRi0Bk-123" value="" style="group" parent="BIAA3tRsBqz8I-IRi0Bk-147" vertex="1" connectable="0">
          <mxGeometry width="20" height="10" as="geometry" />
        </mxCell>
        <mxCell id="BIAA3tRsBqz8I-IRi0Bk-61" value="" style="shape=requiredInterface;html=1;verticalLabelPosition=bottom;rotation=-90;" parent="BIAA3tRsBqz8I-IRi0Bk-123" vertex="1">
          <mxGeometry x="5" y="-5" width="10" height="20" as="geometry" />
        </mxCell>
        <mxCell id="BIAA3tRsBqz8I-IRi0Bk-146" style="edgeStyle=none;orthogonalLoop=1;jettySize=auto;html=1;exitX=1;exitY=0.5;exitDx=0;exitDy=0;exitPerimeter=0;entryX=0.5;entryY=0;entryDx=0;entryDy=0;endArrow=none;" parent="BIAA3tRsBqz8I-IRi0Bk-147" source="BIAA3tRsBqz8I-IRi0Bk-61" target="BIAA3tRsBqz8I-IRi0Bk-60" edge="1">
          <mxGeometry relative="1" as="geometry" />
        </mxCell>
        <mxCell id="BIAA3tRsBqz8I-IRi0Bk-151" value="Name" style="ellipse;whiteSpace=wrap;html=1;rounded=0;" parent="1" vertex="1">
          <mxGeometry x="990" y="160" width="80" height="40" as="geometry" />
        </mxCell>
        <mxCell id="BIAA3tRsBqz8I-IRi0Bk-153" value="Price" style="ellipse;whiteSpace=wrap;html=1;" parent="1" vertex="1">
          <mxGeometry x="1210" y="490" width="50" height="30" as="geometry" />
        </mxCell>
        <mxCell id="BIAA3tRsBqz8I-IRi0Bk-158" value="" style="group" parent="1" vertex="1" connectable="0">
          <mxGeometry x="950" y="660" width="20" height="10" as="geometry" />
        </mxCell>
        <mxCell id="BIAA3tRsBqz8I-IRi0Bk-14" value="" style="endArrow=none;html=1;exitX=0.5;exitY=0;exitDx=0;exitDy=0;entryX=0.5;entryY=1;entryDx=0;entryDy=0;" parent="BIAA3tRsBqz8I-IRi0Bk-158" source="BIAA3tRsBqz8I-IRi0Bk-13" target="BIAA3tRsBqz8I-IRi0Bk-12" edge="1">
          <mxGeometry width="50" height="50" relative="1" as="geometry">
            <mxPoint x="-120" y="20" as="sourcePoint" />
            <mxPoint x="20" y="-20" as="targetPoint" />
          </mxGeometry>
        </mxCell>
        <mxCell id="BIAA3tRsBqz8I-IRi0Bk-16" value="" style="shape=requiredInterface;html=1;verticalLabelPosition=bottom;rotation=90;" parent="BIAA3tRsBqz8I-IRi0Bk-158" vertex="1">
          <mxGeometry x="5" y="-5" width="10" height="20" as="geometry" />
        </mxCell>
        <mxCell id="BIAA3tRsBqz8I-IRi0Bk-161" value="" style="endArrow=none;html=1;exitX=1;exitY=0.75;exitDx=0;exitDy=0;entryX=1;entryY=0.5;entryDx=0;entryDy=0;" parent="1" source="BIAA3tRsBqz8I-IRi0Bk-13" target="BIAA3tRsBqz8I-IRi0Bk-18" edge="1">
          <mxGeometry width="50" height="50" relative="1" as="geometry">
            <mxPoint x="1090" y="714.9999999999999" as="sourcePoint" />
            <mxPoint x="1110" y="810" as="targetPoint" />
            <Array as="points">
              <mxPoint x="1060" y="715" />
              <mxPoint x="1060" y="760" />
              <mxPoint x="1060" y="810" />
            </Array>
          </mxGeometry>
        </mxCell>
        <mxCell id="BIAA3tRsBqz8I-IRi0Bk-164" style="edgeStyle=none;orthogonalLoop=1;jettySize=auto;html=1;exitX=1;exitY=1;exitDx=0;exitDy=0;entryX=0;entryY=0.5;entryDx=0;entryDy=0;fontColor=#007FFF;endArrow=none;" parent="1" source="BIAA3tRsBqz8I-IRi0Bk-162" target="BIAA3tRsBqz8I-IRi0Bk-59" edge="1">
          <mxGeometry relative="1" as="geometry" />
        </mxCell>
        <mxCell id="BIAA3tRsBqz8I-IRi0Bk-162" value="Date" style="ellipse;whiteSpace=wrap;html=1;" parent="1" vertex="1">
          <mxGeometry x="-150" y="440" width="45" height="17.5" as="geometry" />
        </mxCell>
        <mxCell id="BIAA3tRsBqz8I-IRi0Bk-163" value="&lt;u&gt;ID&lt;/u&gt;" style="ellipse;whiteSpace=wrap;html=1;" parent="1" vertex="1">
          <mxGeometry x="-100" y="420" width="35" height="20.5" as="geometry" />
        </mxCell>
        <mxCell id="BIAA3tRsBqz8I-IRi0Bk-167" value="Product_unit_price" style="ellipse;whiteSpace=wrap;html=1;" parent="1" vertex="1">
          <mxGeometry x="160" y="380" width="110" height="52" as="geometry" />
        </mxCell>
        <mxCell id="BIAA3tRsBqz8I-IRi0Bk-168" value="Quantity" style="ellipse;whiteSpace=wrap;html=1;" parent="1" vertex="1">
          <mxGeometry x="280" y="377.5" width="60" height="25" as="geometry" />
        </mxCell>
        <mxCell id="BIAA3tRsBqz8I-IRi0Bk-169" value="Status" style="ellipse;whiteSpace=wrap;html=1;" parent="1" vertex="1">
          <mxGeometry x="360" y="380" width="67.5" height="25" as="geometry" />
        </mxCell>
        <mxCell id="BIAA3tRsBqz8I-IRi0Bk-197" value="" style="group" parent="1" vertex="1" connectable="0">
          <mxGeometry x="70" y="740" width="10" height="20" as="geometry" />
        </mxCell>
        <mxCell id="BIAA3tRsBqz8I-IRi0Bk-85" value="" style="edgeStyle=orthogonalEdgeStyle;rounded=0;orthogonalLoop=1;jettySize=auto;html=1;endArrow=none;endFill=0;" parent="BIAA3tRsBqz8I-IRi0Bk-197" source="BIAA3tRsBqz8I-IRi0Bk-86" target="BIAA3tRsBqz8I-IRi0Bk-100" edge="1">
          <mxGeometry relative="1" as="geometry" />
        </mxCell>
        <mxCell id="BIAA3tRsBqz8I-IRi0Bk-101" value="" style="shape=requiredInterface;html=1;verticalLabelPosition=bottom;rotation=-180;" parent="BIAA3tRsBqz8I-IRi0Bk-197" vertex="1">
          <mxGeometry width="10" height="20" as="geometry" />
        </mxCell>
        <mxCell id="BIAA3tRsBqz8I-IRi0Bk-200" value="Date" style="ellipse;whiteSpace=wrap;html=1;rounded=0;fillColor=#FFFFFF;" parent="1" vertex="1">
          <mxGeometry x="680" y="796.85" width="60" height="26.25" as="geometry" />
        </mxCell>
        <mxCell id="BIAA3tRsBqz8I-IRi0Bk-202" value="Tracking_num" style="ellipse;whiteSpace=wrap;html=1;rounded=0;fillColor=#FFFFFF;" parent="1" vertex="1">
          <mxGeometry x="640" y="838.1" width="90" height="42.5" as="geometry" />
        </mxCell>
        <mxCell id="BIAA3tRsBqz8I-IRi0Bk-206" value="Customer.ID" style="ellipse;whiteSpace=wrap;html=1;strokeColor=#000000;fillColor=#FFFFFF;" parent="1" vertex="1">
          <mxGeometry x="-717.75" y="390.37" width="80" height="35" as="geometry" />
        </mxCell>
        <mxCell id="BIAA3tRsBqz8I-IRi0Bk-218" style="edgeStyle=none;orthogonalLoop=1;jettySize=auto;html=1;exitX=1;exitY=0.5;exitDx=0;exitDy=0;entryX=0;entryY=0.5;entryDx=0;entryDy=0;fontColor=#007FFF;endArrow=none;" parent="1" source="BIAA3tRsBqz8I-IRi0Bk-207" target="BIAA3tRsBqz8I-IRi0Bk-120" edge="1">
          <mxGeometry relative="1" as="geometry" />
        </mxCell>
        <mxCell id="BIAA3tRsBqz8I-IRi0Bk-207" value="Order.ID" style="ellipse;whiteSpace=wrap;html=1;strokeColor=#000000;fillColor=#FFFFFF;" parent="1" vertex="1">
          <mxGeometry x="-717.75" y="500.87" width="80" height="35" as="geometry" />
        </mxCell>
        <mxCell id="BIAA3tRsBqz8I-IRi0Bk-216" style="edgeStyle=none;orthogonalLoop=1;jettySize=auto;html=1;exitX=1;exitY=0.5;exitDx=0;exitDy=0;entryX=0;entryY=0.5;entryDx=0;entryDy=0;fontColor=#007FFF;endArrow=none;" parent="1" source="BIAA3tRsBqz8I-IRi0Bk-208" target="BIAA3tRsBqz8I-IRi0Bk-120" edge="1">
          <mxGeometry relative="1" as="geometry" />
        </mxCell>
        <mxCell id="BIAA3tRsBqz8I-IRi0Bk-208" value="Credit_card.Card_num" style="ellipse;whiteSpace=wrap;html=1;strokeColor=#000000;fillColor=#FFFFFF;" parent="1" vertex="1">
          <mxGeometry x="-742.75" y="433.37" width="130" height="60" as="geometry" />
        </mxCell>
        <mxCell id="BIAA3tRsBqz8I-IRi0Bk-227" style="edgeStyle=none;orthogonalLoop=1;jettySize=auto;html=1;exitX=0;exitY=0.5;exitDx=0;exitDy=0;entryX=1;entryY=0;entryDx=0;entryDy=0;fontColor=#007FFF;endArrow=none;" parent="1" source="BIAA3tRsBqz8I-IRi0Bk-225" target="BIAA3tRsBqz8I-IRi0Bk-120" edge="1">
          <mxGeometry relative="1" as="geometry" />
        </mxCell>
        <mxCell id="BIAA3tRsBqz8I-IRi0Bk-225" value="&lt;font color=&quot;#007fff&quot;&gt;CONTAINS&lt;/font&gt;" style="shape=rhombus;double=1;perimeter=rhombusPerimeter;whiteSpace=wrap;html=1;align=center;strokeColor=#000000;fillColor=#FFFFFF;" parent="1" vertex="1">
          <mxGeometry x="-235" y="362.5" width="120" height="60" as="geometry" />
        </mxCell>
        <mxCell id="BIAA3tRsBqz8I-IRi0Bk-228" value="&lt;font color=&quot;#007fff&quot;&gt;CONTAINS&lt;/font&gt;" style="shape=rhombus;double=1;perimeter=rhombusPerimeter;whiteSpace=wrap;html=1;align=center;strokeColor=#000000;fillColor=#FFFFFF;" parent="1" vertex="1">
          <mxGeometry x="-442.75" y="370" width="120" height="60" as="geometry" />
        </mxCell>
        <mxCell id="BIAA3tRsBqz8I-IRi0Bk-231" value="&lt;font color=&quot;#007fff&quot;&gt;CONTAINS&lt;/font&gt;" style="shape=rhombus;double=1;perimeter=rhombusPerimeter;whiteSpace=wrap;html=1;align=center;strokeColor=#000000;fillColor=#FFFFFF;" parent="1" vertex="1">
          <mxGeometry x="-365" y="540" width="120" height="60" as="geometry" />
        </mxCell>
        <mxCell id="BIAA3tRsBqz8I-IRi0Bk-234" value="" style="group" parent="1" vertex="1" connectable="0">
          <mxGeometry x="-0.16840575370346045" y="708.6540508978795" width="20.33681150740692" height="10.691898204240943" as="geometry" />
        </mxCell>
        <mxCell id="BIAA3tRsBqz8I-IRi0Bk-80" value="" style="edgeStyle=orthogonalEdgeStyle;rounded=0;orthogonalLoop=1;jettySize=auto;html=1;endArrow=none;endFill=0;" parent="BIAA3tRsBqz8I-IRi0Bk-234" source="BIAA3tRsBqz8I-IRi0Bk-81" target="BIAA3tRsBqz8I-IRi0Bk-86" edge="1">
          <mxGeometry relative="1" as="geometry" />
        </mxCell>
        <mxCell id="BIAA3tRsBqz8I-IRi0Bk-88" value="" style="shape=requiredInterface;html=1;verticalLabelPosition=bottom;rotation=92;" parent="BIAA3tRsBqz8I-IRi0Bk-234" vertex="1">
          <mxGeometry x="5.1684057537034604" y="-4.654050897879529" width="10" height="20" as="geometry" />
        </mxCell>
        <mxCell id="YEvS3idMorMy7A3DSORb-4" value="&lt;font color=&quot;#007fff&quot;&gt;CONTAINS&lt;/font&gt;" style="shape=rhombus;double=1;perimeter=rhombusPerimeter;whiteSpace=wrap;html=1;align=center;strokeColor=#000000;fillColor=#FFFFFF;" parent="1" vertex="1">
          <mxGeometry x="-525" y="540" width="120" height="60" as="geometry" />
        </mxCell>
        <mxCell id="YEvS3idMorMy7A3DSORb-8" value="Invoice.Number" style="ellipse;whiteSpace=wrap;html=1;strokeColor=#000000;fillColor=#FFFFFF;" parent="1" vertex="1">
          <mxGeometry x="-724.75" y="549.62" width="94" height="55" as="geometry" />
        </mxCell>
        <mxCell id="YEvS3idMorMy7A3DSORb-11" value="&lt;u&gt;Datetime&lt;/u&gt;" style="ellipse;whiteSpace=wrap;html=1;strokeColor=#000000;fillColor=#FFFFFF;" parent="1" vertex="1">
          <mxGeometry x="-510" y="420" width="60" height="30.37" as="geometry" />
        </mxCell>
        <mxCell id="uO7FjOwFomCsVzwb91al-4" value="" style="group" parent="1" vertex="1" connectable="0">
          <mxGeometry x="-392.75" y="327" width="20" height="10" as="geometry" />
        </mxCell>
        <mxCell id="BIAA3tRsBqz8I-IRi0Bk-230" style="edgeStyle=none;orthogonalLoop=1;jettySize=auto;html=1;exitX=0.5;exitY=0;exitDx=0;exitDy=0;entryX=0.5;entryY=1;entryDx=0;entryDy=0;fontColor=#007FFF;endArrow=none;" parent="uO7FjOwFomCsVzwb91al-4" source="BIAA3tRsBqz8I-IRi0Bk-228" target="BIAA3tRsBqz8I-IRi0Bk-5" edge="1">
          <mxGeometry relative="1" as="geometry" />
        </mxCell>
        <mxCell id="uO7FjOwFomCsVzwb91al-1" value="" style="group" parent="uO7FjOwFomCsVzwb91al-4" vertex="1" connectable="0">
          <mxGeometry width="20" height="10" as="geometry" />
        </mxCell>
        <mxCell id="uO7FjOwFomCsVzwb91al-2" value="" style="edgeStyle=orthogonalEdgeStyle;rounded=0;orthogonalLoop=1;jettySize=auto;html=1;endArrow=none;endFill=0;" parent="uO7FjOwFomCsVzwb91al-1" edge="1">
          <mxGeometry relative="1" as="geometry" />
        </mxCell>
        <mxCell id="uO7FjOwFomCsVzwb91al-3" value="" style="shape=requiredInterface;html=1;verticalLabelPosition=bottom;rotation=-90;" parent="uO7FjOwFomCsVzwb91al-1" vertex="1">
          <mxGeometry x="5" y="-5" width="10" height="20" as="geometry" />
        </mxCell>
        <mxCell id="uO7FjOwFomCsVzwb91al-15" value="" style="group" parent="1" vertex="1" connectable="0">
          <mxGeometry x="-63.258098312460284" y="313.12561752037755" width="20.516196624920568" height="21.74876495924491" as="geometry" />
        </mxCell>
        <mxCell id="BIAA3tRsBqz8I-IRi0Bk-226" style="edgeStyle=none;orthogonalLoop=1;jettySize=auto;html=1;exitX=1;exitY=0.5;exitDx=0;exitDy=0;entryX=0;entryY=1;entryDx=0;entryDy=0;fontColor=#007FFF;endArrow=none;" parent="uO7FjOwFomCsVzwb91al-15" source="BIAA3tRsBqz8I-IRi0Bk-225" target="BIAA3tRsBqz8I-IRi0Bk-1" edge="1">
          <mxGeometry relative="1" as="geometry" />
        </mxCell>
        <mxCell id="uO7FjOwFomCsVzwb91al-10" value="" style="group;rotation=50;" parent="uO7FjOwFomCsVzwb91al-15" vertex="1" connectable="0">
          <mxGeometry x="0.2580983124602838" y="5.874382479622454" width="20" height="10" as="geometry" />
        </mxCell>
        <mxCell id="uO7FjOwFomCsVzwb91al-11" style="edgeStyle=none;orthogonalLoop=1;jettySize=auto;html=1;exitX=0.5;exitY=0;exitDx=0;exitDy=0;entryX=0.5;entryY=1;entryDx=0;entryDy=0;fontColor=#007FFF;endArrow=none;" parent="uO7FjOwFomCsVzwb91al-10" edge="1">
          <mxGeometry relative="1" as="geometry" />
        </mxCell>
        <mxCell id="uO7FjOwFomCsVzwb91al-12" value="" style="group;rotation=50;" parent="uO7FjOwFomCsVzwb91al-10" vertex="1" connectable="0">
          <mxGeometry width="20" height="10" as="geometry" />
        </mxCell>
        <mxCell id="uO7FjOwFomCsVzwb91al-13" value="" style="edgeStyle=orthogonalEdgeStyle;rounded=0;orthogonalLoop=1;jettySize=auto;html=1;endArrow=none;endFill=0;" parent="uO7FjOwFomCsVzwb91al-12" edge="1">
          <mxGeometry relative="1" as="geometry" />
        </mxCell>
        <mxCell id="uO7FjOwFomCsVzwb91al-14" value="" style="shape=requiredInterface;html=1;verticalLabelPosition=bottom;rotation=-40;" parent="uO7FjOwFomCsVzwb91al-12" vertex="1">
          <mxGeometry x="5" y="-5" width="10" height="20" as="geometry" />
        </mxCell>
        <mxCell id="uO7FjOwFomCsVzwb91al-22" value="" style="group" parent="1" vertex="1" connectable="0">
          <mxGeometry x="-61.677819582470555" y="520.9166465115967" width="14.8356391649411" height="21.906706976806618" as="geometry" />
        </mxCell>
        <mxCell id="BIAA3tRsBqz8I-IRi0Bk-233" style="edgeStyle=none;orthogonalLoop=1;jettySize=auto;html=1;exitX=1;exitY=0.5;exitDx=0;exitDy=0;entryX=0;entryY=1;entryDx=0;entryDy=0;fontColor=#007FFF;endArrow=none;" parent="uO7FjOwFomCsVzwb91al-22" source="BIAA3tRsBqz8I-IRi0Bk-231" target="BIAA3tRsBqz8I-IRi0Bk-59" edge="1">
          <mxGeometry relative="1" as="geometry" />
        </mxCell>
        <mxCell id="uO7FjOwFomCsVzwb91al-17" value="" style="group;rotation=75;" parent="uO7FjOwFomCsVzwb91al-22" vertex="1" connectable="0">
          <mxGeometry x="-2.5821804175294503" y="5.953353488403309" width="20" height="10" as="geometry" />
        </mxCell>
        <mxCell id="uO7FjOwFomCsVzwb91al-18" style="edgeStyle=none;orthogonalLoop=1;jettySize=auto;html=1;exitX=0.5;exitY=0;exitDx=0;exitDy=0;entryX=0.5;entryY=1;entryDx=0;entryDy=0;fontColor=#007FFF;endArrow=none;" parent="uO7FjOwFomCsVzwb91al-17" edge="1">
          <mxGeometry relative="1" as="geometry" />
        </mxCell>
        <mxCell id="uO7FjOwFomCsVzwb91al-19" value="" style="group;rotation=75;" parent="uO7FjOwFomCsVzwb91al-17" vertex="1" connectable="0">
          <mxGeometry width="20" height="10" as="geometry" />
        </mxCell>
        <mxCell id="uO7FjOwFomCsVzwb91al-20" value="" style="edgeStyle=orthogonalEdgeStyle;rounded=0;orthogonalLoop=1;jettySize=auto;html=1;endArrow=none;endFill=0;" parent="uO7FjOwFomCsVzwb91al-19" edge="1">
          <mxGeometry relative="1" as="geometry" />
        </mxCell>
        <mxCell id="uO7FjOwFomCsVzwb91al-21" value="" style="shape=requiredInterface;html=1;verticalLabelPosition=bottom;rotation=-15;" parent="uO7FjOwFomCsVzwb91al-19" vertex="1">
          <mxGeometry x="5" y="-5" width="10" height="20" as="geometry" />
        </mxCell>
        <mxCell id="uO7FjOwFomCsVzwb91al-28" value="" style="group" parent="1" vertex="1" connectable="0">
          <mxGeometry x="-62.85866453718624" y="708.3929730755126" width="16.237329074372468" height="22.2140538489748" as="geometry" />
        </mxCell>
        <mxCell id="YEvS3idMorMy7A3DSORb-7" style="edgeStyle=none;orthogonalLoop=1;jettySize=auto;html=1;exitX=0.5;exitY=1;exitDx=0;exitDy=0;entryX=0;entryY=0;entryDx=0;entryDy=0;fontColor=#007FFF;endArrow=none;" parent="uO7FjOwFomCsVzwb91al-28" source="YEvS3idMorMy7A3DSORb-4" target="BIAA3tRsBqz8I-IRi0Bk-86" edge="1">
          <mxGeometry relative="1" as="geometry" />
        </mxCell>
        <mxCell id="uO7FjOwFomCsVzwb91al-23" value="" style="group;rotation=110;" parent="uO7FjOwFomCsVzwb91al-28" vertex="1" connectable="0">
          <mxGeometry x="-1.881335462813766" y="6.1070269244874" width="20" height="10" as="geometry" />
        </mxCell>
        <mxCell id="uO7FjOwFomCsVzwb91al-24" style="edgeStyle=none;orthogonalLoop=1;jettySize=auto;html=1;exitX=0.5;exitY=0;exitDx=0;exitDy=0;entryX=0.5;entryY=1;entryDx=0;entryDy=0;fontColor=#007FFF;endArrow=none;" parent="uO7FjOwFomCsVzwb91al-23" edge="1">
          <mxGeometry relative="1" as="geometry" />
        </mxCell>
        <mxCell id="uO7FjOwFomCsVzwb91al-25" value="" style="group;rotation=110;" parent="uO7FjOwFomCsVzwb91al-23" vertex="1" connectable="0">
          <mxGeometry width="20" height="10" as="geometry" />
        </mxCell>
        <mxCell id="uO7FjOwFomCsVzwb91al-26" value="" style="edgeStyle=orthogonalEdgeStyle;rounded=0;orthogonalLoop=1;jettySize=auto;html=1;endArrow=none;endFill=0;" parent="uO7FjOwFomCsVzwb91al-25" edge="1">
          <mxGeometry relative="1" as="geometry" />
        </mxCell>
        <mxCell id="uO7FjOwFomCsVzwb91al-27" value="" style="shape=requiredInterface;html=1;verticalLabelPosition=bottom;rotation=20;" parent="uO7FjOwFomCsVzwb91al-25" vertex="1">
          <mxGeometry x="5" y="-5" width="10" height="20" as="geometry" />
        </mxCell>
        <mxCell id="lZ9FPIsrAjpElC8hOEuc-109" value="" style="endArrow=none;html=1;" parent="1" edge="1">
          <mxGeometry width="50" height="50" relative="1" as="geometry">
            <mxPoint x="-510" y="990" as="sourcePoint" />
            <mxPoint x="1911.4285714285713" y="990" as="targetPoint" />
          </mxGeometry>
        </mxCell>
        <mxCell id="ZvNZ9_FlC1upSQAxGc2a-1" value="SHIPMENT _RECORD" style="swimlane;fontStyle=0;childLayout=stackLayout;horizontal=1;startSize=26;fillColor=none;horizontalStack=0;resizeParent=1;resizeParentMax=0;resizeLast=0;collapsible=1;marginBottom=0;" vertex="1" parent="1">
          <mxGeometry x="690" y="1388" width="160" height="130" as="geometry" />
        </mxCell>
        <mxCell id="ZvNZ9_FlC1upSQAxGc2a-2" value="SHIPMENT _RECORD_ID" style="text;strokeColor=none;fillColor=none;align=left;verticalAlign=top;spacingLeft=4;spacingRight=4;overflow=hidden;rotatable=0;points=[[0,0.5],[1,0.5]];portConstraint=eastwest;" vertex="1" parent="ZvNZ9_FlC1upSQAxGc2a-1">
          <mxGeometry y="26" width="160" height="26" as="geometry" />
        </mxCell>
        <mxCell id="ZvNZ9_FlC1upSQAxGc2a-3" value="ORDER_ITEM" style="text;strokeColor=none;fillColor=none;align=left;verticalAlign=top;spacingLeft=4;spacingRight=4;overflow=hidden;rotatable=0;points=[[0,0.5],[1,0.5]];portConstraint=eastwest;" vertex="1" parent="ZvNZ9_FlC1upSQAxGc2a-1">
          <mxGeometry y="52" width="160" height="26" as="geometry" />
        </mxCell>
        <mxCell id="ZvNZ9_FlC1upSQAxGc2a-4" value="ORDER_ID" style="text;strokeColor=none;fillColor=none;align=left;verticalAlign=top;spacingLeft=4;spacingRight=4;overflow=hidden;rotatable=0;points=[[0,0.5],[1,0.5]];portConstraint=eastwest;" vertex="1" parent="ZvNZ9_FlC1upSQAxGc2a-1">
          <mxGeometry y="78" width="160" height="26" as="geometry" />
        </mxCell>
        <mxCell id="ZvNZ9_FlC1upSQAxGc2a-5" value="SHIPMENT_ID" style="text;strokeColor=none;fillColor=none;align=left;verticalAlign=top;spacingLeft=4;spacingRight=4;overflow=hidden;rotatable=0;points=[[0,0.5],[1,0.5]];portConstraint=eastwest;" vertex="1" parent="ZvNZ9_FlC1upSQAxGc2a-1">
          <mxGeometry y="104" width="160" height="26" as="geometry" />
        </mxCell>
        <mxCell id="ZvNZ9_FlC1upSQAxGc2a-6" value="CREDIT_CARD" style="swimlane;fontStyle=0;childLayout=stackLayout;horizontal=1;startSize=26;fillColor=none;horizontalStack=0;resizeParent=1;resizeParentMax=0;resizeLast=0;collapsible=1;marginBottom=0;" vertex="1" parent="1">
          <mxGeometry x="-70" y="1158" width="140" height="104" as="geometry" />
        </mxCell>
        <mxCell id="ZvNZ9_FlC1upSQAxGc2a-7" value="Card_num" style="text;strokeColor=none;fillColor=none;align=left;verticalAlign=top;spacingLeft=4;spacingRight=4;overflow=hidden;rotatable=0;points=[[0,0.5],[1,0.5]];portConstraint=eastwest;fontStyle=4" vertex="1" parent="ZvNZ9_FlC1upSQAxGc2a-6">
          <mxGeometry y="26" width="140" height="26" as="geometry" />
        </mxCell>
        <mxCell id="ZvNZ9_FlC1upSQAxGc2a-8" value="Name" style="text;strokeColor=none;fillColor=none;align=left;verticalAlign=top;spacingLeft=4;spacingRight=4;overflow=hidden;rotatable=0;points=[[0,0.5],[1,0.5]];portConstraint=eastwest;" vertex="1" parent="ZvNZ9_FlC1upSQAxGc2a-6">
          <mxGeometry y="52" width="140" height="26" as="geometry" />
        </mxCell>
        <mxCell id="ZvNZ9_FlC1upSQAxGc2a-9" value="Customer_ID" style="text;strokeColor=none;fillColor=none;align=left;verticalAlign=top;spacingLeft=4;spacingRight=4;overflow=hidden;rotatable=0;points=[[0,0.5],[1,0.5]];portConstraint=eastwest;" vertex="1" parent="ZvNZ9_FlC1upSQAxGc2a-6">
          <mxGeometry y="78" width="140" height="26" as="geometry" />
        </mxCell>
        <mxCell id="ZvNZ9_FlC1upSQAxGc2a-10" value="CUSTOMER" style="swimlane;fontStyle=0;childLayout=stackLayout;horizontal=1;startSize=26;fillColor=none;horizontalStack=0;resizeParent=1;resizeParentMax=0;resizeLast=0;collapsible=1;marginBottom=0;" vertex="1" parent="1">
          <mxGeometry x="250" y="1158" width="140" height="212" as="geometry" />
        </mxCell>
        <mxCell id="ZvNZ9_FlC1upSQAxGc2a-11" value="CUSTOMER_ID" style="text;strokeColor=none;fillColor=none;align=left;verticalAlign=top;spacingLeft=4;spacingRight=4;overflow=hidden;rotatable=0;points=[[0,0.5],[1,0.5]];portConstraint=eastwest;fontStyle=4" vertex="1" parent="ZvNZ9_FlC1upSQAxGc2a-10">
          <mxGeometry y="26" width="140" height="26" as="geometry" />
        </mxCell>
        <mxCell id="ZvNZ9_FlC1upSQAxGc2a-12" value="Username" style="text;strokeColor=none;fillColor=none;align=left;verticalAlign=top;spacingLeft=4;spacingRight=4;overflow=hidden;rotatable=0;points=[[0,0.5],[1,0.5]];portConstraint=eastwest;" vertex="1" parent="ZvNZ9_FlC1upSQAxGc2a-10">
          <mxGeometry y="52" width="140" height="26" as="geometry" />
        </mxCell>
        <mxCell id="ZvNZ9_FlC1upSQAxGc2a-13" value="Email" style="text;strokeColor=none;fillColor=none;align=left;verticalAlign=top;spacingLeft=4;spacingRight=4;overflow=hidden;rotatable=0;points=[[0,0.5],[1,0.5]];portConstraint=eastwest;" vertex="1" parent="ZvNZ9_FlC1upSQAxGc2a-10">
          <mxGeometry y="78" width="140" height="26" as="geometry" />
        </mxCell>
        <mxCell id="ZvNZ9_FlC1upSQAxGc2a-14" value="Password&#xa;" style="text;strokeColor=none;fillColor=none;align=left;verticalAlign=top;spacingLeft=4;spacingRight=4;overflow=hidden;rotatable=0;points=[[0,0.5],[1,0.5]];portConstraint=eastwest;" vertex="1" parent="ZvNZ9_FlC1upSQAxGc2a-10">
          <mxGeometry y="104" width="140" height="26" as="geometry" />
        </mxCell>
        <mxCell id="ZvNZ9_FlC1upSQAxGc2a-15" value="Full_name" style="text;strokeColor=none;fillColor=none;align=left;verticalAlign=top;spacingLeft=4;spacingRight=4;overflow=hidden;rotatable=0;points=[[0,0.5],[1,0.5]];portConstraint=eastwest;" vertex="1" parent="ZvNZ9_FlC1upSQAxGc2a-10">
          <mxGeometry y="130" width="140" height="30" as="geometry" />
        </mxCell>
        <mxCell id="ZvNZ9_FlC1upSQAxGc2a-16" value="Address" style="text;strokeColor=none;fillColor=none;align=left;verticalAlign=top;spacingLeft=4;spacingRight=4;overflow=hidden;rotatable=0;points=[[0,0.5],[1,0.5]];portConstraint=eastwest;" vertex="1" parent="ZvNZ9_FlC1upSQAxGc2a-10">
          <mxGeometry y="160" width="140" height="26" as="geometry" />
        </mxCell>
        <mxCell id="ZvNZ9_FlC1upSQAxGc2a-17" value="Phone_num" style="text;strokeColor=none;fillColor=none;align=left;verticalAlign=top;spacingLeft=4;spacingRight=4;overflow=hidden;rotatable=0;points=[[0,0.5],[1,0.5]];portConstraint=eastwest;" vertex="1" parent="ZvNZ9_FlC1upSQAxGc2a-10">
          <mxGeometry y="186" width="140" height="26" as="geometry" />
        </mxCell>
        <mxCell id="ZvNZ9_FlC1upSQAxGc2a-18" value="PAYMENT_RECORD" style="swimlane;fontStyle=0;childLayout=stackLayout;horizontal=1;startSize=26;fillColor=none;horizontalStack=0;resizeParent=1;resizeParentMax=0;resizeLast=0;collapsible=1;marginBottom=0;" vertex="1" parent="1">
          <mxGeometry x="-70" y="1448" width="160" height="156" as="geometry" />
        </mxCell>
        <mxCell id="ZvNZ9_FlC1upSQAxGc2a-19" value="PAYMENT_RECORD_ID" style="text;strokeColor=none;fillColor=none;align=left;verticalAlign=top;spacingLeft=4;spacingRight=4;overflow=hidden;rotatable=0;points=[[0,0.5],[1,0.5]];portConstraint=eastwest;fontStyle=4" vertex="1" parent="ZvNZ9_FlC1upSQAxGc2a-18">
          <mxGeometry y="26" width="160" height="26" as="geometry" />
        </mxCell>
        <mxCell id="ZvNZ9_FlC1upSQAxGc2a-20" value="Credit_card.Card_num" style="text;strokeColor=none;fillColor=none;align=left;verticalAlign=top;spacingLeft=4;spacingRight=4;overflow=hidden;rotatable=0;points=[[0,0.5],[1,0.5]];portConstraint=eastwest;" vertex="1" parent="ZvNZ9_FlC1upSQAxGc2a-18">
          <mxGeometry y="52" width="160" height="26" as="geometry" />
        </mxCell>
        <mxCell id="ZvNZ9_FlC1upSQAxGc2a-21" value="Customer.ID" style="text;strokeColor=none;fillColor=none;align=left;verticalAlign=top;spacingLeft=4;spacingRight=4;overflow=hidden;rotatable=0;points=[[0,0.5],[1,0.5]];portConstraint=eastwest;" vertex="1" parent="ZvNZ9_FlC1upSQAxGc2a-18">
          <mxGeometry y="78" width="160" height="26" as="geometry" />
        </mxCell>
        <mxCell id="ZvNZ9_FlC1upSQAxGc2a-22" value="Order.ID" style="text;strokeColor=none;fillColor=none;align=left;verticalAlign=top;spacingLeft=4;spacingRight=4;overflow=hidden;rotatable=0;points=[[0,0.5],[1,0.5]];portConstraint=eastwest;" vertex="1" parent="ZvNZ9_FlC1upSQAxGc2a-18">
          <mxGeometry y="104" width="160" height="26" as="geometry" />
        </mxCell>
        <mxCell id="ZvNZ9_FlC1upSQAxGc2a-23" value="Invoice.Number" style="text;strokeColor=none;fillColor=none;align=left;verticalAlign=top;spacingLeft=4;spacingRight=4;overflow=hidden;rotatable=0;points=[[0,0.5],[1,0.5]];portConstraint=eastwest;" vertex="1" parent="ZvNZ9_FlC1upSQAxGc2a-18">
          <mxGeometry y="130" width="160" height="26" as="geometry" />
        </mxCell>
        <mxCell id="ZvNZ9_FlC1upSQAxGc2a-24" value="ORDER" style="swimlane;fontStyle=0;childLayout=stackLayout;horizontal=1;startSize=26;fillColor=none;horizontalStack=0;resizeParent=1;resizeParentMax=0;resizeLast=0;collapsible=1;marginBottom=0;" vertex="1" parent="1">
          <mxGeometry x="250" y="1468" width="140" height="130" as="geometry" />
        </mxCell>
        <mxCell id="ZvNZ9_FlC1upSQAxGc2a-25" value="ORDER_ID" style="text;strokeColor=none;fillColor=none;align=left;verticalAlign=top;spacingLeft=4;spacingRight=4;overflow=hidden;rotatable=0;points=[[0,0.5],[1,0.5]];portConstraint=eastwest;" vertex="1" parent="ZvNZ9_FlC1upSQAxGc2a-24">
          <mxGeometry y="26" width="140" height="26" as="geometry" />
        </mxCell>
        <mxCell id="ZvNZ9_FlC1upSQAxGc2a-26" value="Date" style="text;strokeColor=none;fillColor=none;align=left;verticalAlign=top;spacingLeft=4;spacingRight=4;overflow=hidden;rotatable=0;points=[[0,0.5],[1,0.5]];portConstraint=eastwest;" vertex="1" parent="ZvNZ9_FlC1upSQAxGc2a-24">
          <mxGeometry y="52" width="140" height="26" as="geometry" />
        </mxCell>
        <mxCell id="ZvNZ9_FlC1upSQAxGc2a-27" value="Status" style="text;strokeColor=none;fillColor=none;align=left;verticalAlign=top;spacingLeft=4;spacingRight=4;overflow=hidden;rotatable=0;points=[[0,0.5],[1,0.5]];portConstraint=eastwest;" vertex="1" parent="ZvNZ9_FlC1upSQAxGc2a-24">
          <mxGeometry y="78" width="140" height="26" as="geometry" />
        </mxCell>
        <mxCell id="ZvNZ9_FlC1upSQAxGc2a-28" value="Is_fully_paid" style="text;strokeColor=none;fillColor=none;align=left;verticalAlign=top;spacingLeft=4;spacingRight=4;overflow=hidden;rotatable=0;points=[[0,0.5],[1,0.5]];portConstraint=eastwest;" vertex="1" parent="ZvNZ9_FlC1upSQAxGc2a-24">
          <mxGeometry y="104" width="140" height="26" as="geometry" />
        </mxCell>
        <mxCell id="Fr1E9OPYCrHmNysL7G3M-3" style="edgeStyle=orthogonalEdgeStyle;rounded=0;orthogonalLoop=1;jettySize=auto;html=1;exitX=0.5;exitY=0;exitDx=0;exitDy=0;entryX=1;entryY=0.5;entryDx=0;entryDy=0;" edge="1" parent="1" source="Fr1E9OPYCrHmNysL7G3M-1" target="BIAA3tRsBqz8I-IRi0Bk-59">
          <mxGeometry relative="1" as="geometry" />
        </mxCell>
        <mxCell id="ZvNZ9_FlC1upSQAxGc2a-29" value="INVOICE" style="swimlane;fontStyle=0;childLayout=stackLayout;horizontal=1;startSize=26;fillColor=none;horizontalStack=0;resizeParent=1;resizeParentMax=0;resizeLast=0;collapsible=1;marginBottom=0;" vertex="1" parent="1">
          <mxGeometry x="260" y="1688" width="140" height="104" as="geometry" />
        </mxCell>
        <mxCell id="ZvNZ9_FlC1upSQAxGc2a-30" value="number" style="text;strokeColor=none;fillColor=none;align=left;verticalAlign=top;spacingLeft=4;spacingRight=4;overflow=hidden;rotatable=0;points=[[0,0.5],[1,0.5]];portConstraint=eastwest;fontStyle=4" vertex="1" parent="ZvNZ9_FlC1upSQAxGc2a-29">
          <mxGeometry y="26" width="140" height="26" as="geometry" />
        </mxCell>
        <mxCell id="ZvNZ9_FlC1upSQAxGc2a-31" value="Date" style="text;strokeColor=none;fillColor=none;align=left;verticalAlign=top;spacingLeft=4;spacingRight=4;overflow=hidden;rotatable=0;points=[[0,0.5],[1,0.5]];portConstraint=eastwest;" vertex="1" parent="ZvNZ9_FlC1upSQAxGc2a-29">
          <mxGeometry y="52" width="140" height="26" as="geometry" />
        </mxCell>
        <mxCell id="ZvNZ9_FlC1upSQAxGc2a-32" value="Status" style="text;strokeColor=none;fillColor=none;align=left;verticalAlign=top;spacingLeft=4;spacingRight=4;overflow=hidden;rotatable=0;points=[[0,0.5],[1,0.5]];portConstraint=eastwest;" vertex="1" parent="ZvNZ9_FlC1upSQAxGc2a-29">
          <mxGeometry y="78" width="140" height="26" as="geometry" />
        </mxCell>
        <mxCell id="Fr1E9OPYCrHmNysL7G3M-4" style="edgeStyle=orthogonalEdgeStyle;rounded=0;orthogonalLoop=1;jettySize=auto;html=1;exitX=1;exitY=0.5;exitDx=0;exitDy=0;entryX=0.5;entryY=0;entryDx=0;entryDy=0;" edge="1" parent="1" source="Fr1E9OPYCrHmNysL7G3M-1" target="BIAA3tRsBqz8I-IRi0Bk-104">
          <mxGeometry relative="1" as="geometry" />
        </mxCell>
        <mxCell id="ZvNZ9_FlC1upSQAxGc2a-33" value="SHIPMENT" style="swimlane;fontStyle=0;childLayout=stackLayout;horizontal=1;startSize=26;fillColor=none;horizontalStack=0;resizeParent=1;resizeParentMax=0;resizeLast=0;collapsible=1;marginBottom=0;" vertex="1" parent="1">
          <mxGeometry x="500" y="1598" width="140" height="104" as="geometry" />
        </mxCell>
        <mxCell id="ZvNZ9_FlC1upSQAxGc2a-34" value="Shipment_ID" style="text;strokeColor=none;fillColor=none;align=left;verticalAlign=top;spacingLeft=4;spacingRight=4;overflow=hidden;rotatable=0;points=[[0,0.5],[1,0.5]];portConstraint=eastwest;" vertex="1" parent="ZvNZ9_FlC1upSQAxGc2a-33">
          <mxGeometry y="26" width="140" height="26" as="geometry" />
        </mxCell>
        <mxCell id="ZvNZ9_FlC1upSQAxGc2a-35" value="Date" style="text;strokeColor=none;fillColor=none;align=left;verticalAlign=top;spacingLeft=4;spacingRight=4;overflow=hidden;rotatable=0;points=[[0,0.5],[1,0.5]];portConstraint=eastwest;" vertex="1" parent="ZvNZ9_FlC1upSQAxGc2a-33">
          <mxGeometry y="52" width="140" height="26" as="geometry" />
        </mxCell>
        <mxCell id="ZvNZ9_FlC1upSQAxGc2a-36" value="Tracking_num" style="text;strokeColor=none;fillColor=none;align=left;verticalAlign=top;spacingLeft=4;spacingRight=4;overflow=hidden;rotatable=0;points=[[0,0.5],[1,0.5]];portConstraint=eastwest;" vertex="1" parent="ZvNZ9_FlC1upSQAxGc2a-33">
          <mxGeometry y="78" width="140" height="26" as="geometry" />
        </mxCell>
        <mxCell id="Fr1E9OPYCrHmNysL7G3M-6" style="edgeStyle=orthogonalEdgeStyle;rounded=0;orthogonalLoop=1;jettySize=auto;html=1;entryX=0;entryY=0.5;entryDx=0;entryDy=0;" edge="1" parent="1" source="Fr1E9OPYCrHmNysL7G3M-1">
          <mxGeometry relative="1" as="geometry">
            <mxPoint x="285" y="499.9999999999999" as="targetPoint" />
            <Array as="points">
              <mxPoint x="230" y="500" />
            </Array>
          </mxGeometry>
        </mxCell>
        <mxCell id="ZvNZ9_FlC1upSQAxGc2a-37" value="ORDER_ITEM" style="swimlane;fontStyle=0;childLayout=stackLayout;horizontal=1;startSize=26;fillColor=none;horizontalStack=0;resizeParent=1;resizeParentMax=0;resizeLast=0;collapsible=1;marginBottom=0;" vertex="1" parent="1">
          <mxGeometry x="450" y="1178" width="140" height="260" as="geometry" />
        </mxCell>
        <mxCell id="ZvNZ9_FlC1upSQAxGc2a-38" value="ORDER_ITEM_ID&#xa;" style="text;strokeColor=none;fillColor=none;align=left;verticalAlign=top;spacingLeft=4;spacingRight=4;overflow=hidden;rotatable=0;points=[[0,0.5],[1,0.5]];portConstraint=eastwest;fontStyle=4" vertex="1" parent="ZvNZ9_FlC1upSQAxGc2a-37">
          <mxGeometry y="26" width="140" height="26" as="geometry" />
        </mxCell>
        <mxCell id="ZvNZ9_FlC1upSQAxGc2a-39" value="Sequence_num" style="text;strokeColor=none;fillColor=none;align=left;verticalAlign=top;spacingLeft=4;spacingRight=4;overflow=hidden;rotatable=0;points=[[0,0.5],[1,0.5]];portConstraint=eastwest;" vertex="1" parent="ZvNZ9_FlC1upSQAxGc2a-37">
          <mxGeometry y="52" width="140" height="26" as="geometry" />
        </mxCell>
        <mxCell id="ZvNZ9_FlC1upSQAxGc2a-40" value="Product_ID" style="text;strokeColor=none;fillColor=none;align=left;verticalAlign=top;spacingLeft=4;spacingRight=4;overflow=hidden;rotatable=0;points=[[0,0.5],[1,0.5]];portConstraint=eastwest;" vertex="1" parent="ZvNZ9_FlC1upSQAxGc2a-37">
          <mxGeometry y="78" width="140" height="26" as="geometry" />
        </mxCell>
        <mxCell id="ZvNZ9_FlC1upSQAxGc2a-41" value="Status" style="text;strokeColor=none;fillColor=none;align=left;verticalAlign=top;spacingLeft=4;spacingRight=4;overflow=hidden;rotatable=0;points=[[0,0.5],[1,0.5]];portConstraint=eastwest;" vertex="1" parent="ZvNZ9_FlC1upSQAxGc2a-37">
          <mxGeometry y="104" width="140" height="26" as="geometry" />
        </mxCell>
        <mxCell id="ZvNZ9_FlC1upSQAxGc2a-42" value="Quantity" style="text;strokeColor=none;fillColor=none;align=left;verticalAlign=top;spacingLeft=4;spacingRight=4;overflow=hidden;rotatable=0;points=[[0,0.5],[1,0.5]];portConstraint=eastwest;" vertex="1" parent="ZvNZ9_FlC1upSQAxGc2a-37">
          <mxGeometry y="130" width="140" height="26" as="geometry" />
        </mxCell>
        <mxCell id="ZvNZ9_FlC1upSQAxGc2a-43" value="Product_unit_price" style="text;strokeColor=none;fillColor=none;align=left;verticalAlign=top;spacingLeft=4;spacingRight=4;overflow=hidden;rotatable=0;points=[[0,0.5],[1,0.5]];portConstraint=eastwest;" vertex="1" parent="ZvNZ9_FlC1upSQAxGc2a-37">
          <mxGeometry y="156" width="140" height="26" as="geometry" />
        </mxCell>
        <mxCell id="ZvNZ9_FlC1upSQAxGc2a-44" value="Order_price" style="text;strokeColor=none;fillColor=none;align=left;verticalAlign=top;spacingLeft=4;spacingRight=4;overflow=hidden;rotatable=0;points=[[0,0.5],[1,0.5]];portConstraint=eastwest;" vertex="1" parent="ZvNZ9_FlC1upSQAxGc2a-37">
          <mxGeometry y="182" width="140" height="26" as="geometry" />
        </mxCell>
        <mxCell id="ZvNZ9_FlC1upSQAxGc2a-45" value="ORDER_ID" style="text;strokeColor=none;fillColor=none;align=left;verticalAlign=top;spacingLeft=4;spacingRight=4;overflow=hidden;rotatable=0;points=[[0,0.5],[1,0.5]];portConstraint=eastwest;" vertex="1" parent="ZvNZ9_FlC1upSQAxGc2a-37">
          <mxGeometry y="208" width="140" height="26" as="geometry" />
        </mxCell>
        <mxCell id="ZvNZ9_FlC1upSQAxGc2a-86" value="SHIPMENT_ID" style="text;strokeColor=none;fillColor=none;align=left;verticalAlign=top;spacingLeft=4;spacingRight=4;overflow=hidden;rotatable=0;points=[[0,0.5],[1,0.5]];portConstraint=eastwest;" vertex="1" parent="ZvNZ9_FlC1upSQAxGc2a-37">
          <mxGeometry y="234" width="140" height="26" as="geometry" />
        </mxCell>
        <mxCell id="Fr1E9OPYCrHmNysL7G3M-9" style="edgeStyle=orthogonalEdgeStyle;rounded=0;orthogonalLoop=1;jettySize=auto;html=1;exitX=0.5;exitY=1;exitDx=0;exitDy=0;entryX=0.5;entryY=0;entryDx=0;entryDy=0;" edge="1" parent="1" source="Fr1E9OPYCrHmNysL7G3M-1" target="Fr1E9OPYCrHmNysL7G3M-8">
          <mxGeometry relative="1" as="geometry" />
        </mxCell>
        <mxCell id="ZvNZ9_FlC1upSQAxGc2a-46" value="SHOP" style="swimlane;fontStyle=0;childLayout=stackLayout;horizontal=1;startSize=26;fillColor=none;horizontalStack=0;resizeParent=1;resizeParentMax=0;resizeLast=0;collapsible=1;marginBottom=0;" vertex="1" parent="1">
          <mxGeometry x="740" y="1080" width="140" height="104" as="geometry" />
        </mxCell>
        <mxCell id="ZvNZ9_FlC1upSQAxGc2a-47" value="Shop_ID" style="text;strokeColor=none;fillColor=none;align=left;verticalAlign=top;spacingLeft=4;spacingRight=4;overflow=hidden;rotatable=0;points=[[0,0.5],[1,0.5]];portConstraint=eastwest;" vertex="1" parent="ZvNZ9_FlC1upSQAxGc2a-46">
          <mxGeometry y="26" width="140" height="26" as="geometry" />
        </mxCell>
        <mxCell id="ZvNZ9_FlC1upSQAxGc2a-48" value="Name" style="text;strokeColor=none;fillColor=none;align=left;verticalAlign=top;spacingLeft=4;spacingRight=4;overflow=hidden;rotatable=0;points=[[0,0.5],[1,0.5]];portConstraint=eastwest;" vertex="1" parent="ZvNZ9_FlC1upSQAxGc2a-46">
          <mxGeometry y="52" width="140" height="26" as="geometry" />
        </mxCell>
        <mxCell id="ZvNZ9_FlC1upSQAxGc2a-49" value="Restriction" style="text;strokeColor=none;fillColor=none;align=left;verticalAlign=top;spacingLeft=4;spacingRight=4;overflow=hidden;rotatable=0;points=[[0,0.5],[1,0.5]];portConstraint=eastwest;" vertex="1" parent="ZvNZ9_FlC1upSQAxGc2a-46">
          <mxGeometry y="78" width="140" height="26" as="geometry" />
        </mxCell>
        <mxCell id="Fr1E9OPYCrHmNysL7G3M-1" value="SHIPMENT_RECORD" style="shape=ext;margin=3;double=1;whiteSpace=wrap;html=1;align=center;strokeColor=#000000;fillColor=#FFFFFF;" vertex="1" parent="1">
          <mxGeometry x="160" y="577.4999999999999" width="140" height="45" as="geometry" />
        </mxCell>
        <mxCell id="ZvNZ9_FlC1upSQAxGc2a-50" value="PRODUCT" style="swimlane;fontStyle=0;childLayout=stackLayout;horizontal=1;startSize=26;fillColor=none;horizontalStack=0;resizeParent=1;resizeParentMax=0;resizeLast=0;collapsible=1;marginBottom=0;" vertex="1" parent="1">
          <mxGeometry x="930" y="1228" width="140" height="234" as="geometry" />
        </mxCell>
        <mxCell id="ZvNZ9_FlC1upSQAxGc2a-51" value="PRODUCT_ID&#xa;&#xa;" style="text;strokeColor=none;fillColor=none;align=left;verticalAlign=top;spacingLeft=4;spacingRight=4;overflow=hidden;rotatable=0;points=[[0,0.5],[1,0.5]];portConstraint=eastwest;" vertex="1" parent="ZvNZ9_FlC1upSQAxGc2a-50">
          <mxGeometry y="26" width="140" height="26" as="geometry" />
        </mxCell>
        <mxCell id="ZvNZ9_FlC1upSQAxGc2a-52" value="Name" style="text;strokeColor=none;fillColor=none;align=left;verticalAlign=top;spacingLeft=4;spacingRight=4;overflow=hidden;rotatable=0;points=[[0,0.5],[1,0.5]];portConstraint=eastwest;" vertex="1" parent="ZvNZ9_FlC1upSQAxGc2a-50">
          <mxGeometry y="52" width="140" height="26" as="geometry" />
        </mxCell>
        <mxCell id="ZvNZ9_FlC1upSQAxGc2a-53" value="Color" style="text;strokeColor=none;fillColor=none;align=left;verticalAlign=top;spacingLeft=4;spacingRight=4;overflow=hidden;rotatable=0;points=[[0,0.5],[1,0.5]];portConstraint=eastwest;" vertex="1" parent="ZvNZ9_FlC1upSQAxGc2a-50">
          <mxGeometry y="78" width="140" height="26" as="geometry" />
        </mxCell>
        <mxCell id="ZvNZ9_FlC1upSQAxGc2a-54" value="Size" style="text;strokeColor=none;fillColor=none;align=left;verticalAlign=top;spacingLeft=4;spacingRight=4;overflow=hidden;rotatable=0;points=[[0,0.5],[1,0.5]];portConstraint=eastwest;" vertex="1" parent="ZvNZ9_FlC1upSQAxGc2a-50">
          <mxGeometry y="104" width="140" height="26" as="geometry" />
        </mxCell>
        <mxCell id="ZvNZ9_FlC1upSQAxGc2a-55" value="Price" style="text;strokeColor=none;fillColor=none;align=left;verticalAlign=top;spacingLeft=4;spacingRight=4;overflow=hidden;rotatable=0;points=[[0,0.5],[1,0.5]];portConstraint=eastwest;" vertex="1" parent="ZvNZ9_FlC1upSQAxGc2a-50">
          <mxGeometry y="130" width="140" height="26" as="geometry" />
        </mxCell>
        <mxCell id="ZvNZ9_FlC1upSQAxGc2a-56" value="Description" style="text;strokeColor=none;fillColor=none;align=left;verticalAlign=top;spacingLeft=4;spacingRight=4;overflow=hidden;rotatable=0;points=[[0,0.5],[1,0.5]];portConstraint=eastwest;" vertex="1" parent="ZvNZ9_FlC1upSQAxGc2a-50">
          <mxGeometry y="156" width="140" height="26" as="geometry" />
        </mxCell>
        <mxCell id="ZvNZ9_FlC1upSQAxGc2a-57" value="Photos" style="text;strokeColor=none;fillColor=none;align=left;verticalAlign=top;spacingLeft=4;spacingRight=4;overflow=hidden;rotatable=0;points=[[0,0.5],[1,0.5]];portConstraint=eastwest;" vertex="1" parent="ZvNZ9_FlC1upSQAxGc2a-50">
          <mxGeometry y="182" width="140" height="26" as="geometry" />
        </mxCell>
        <mxCell id="ZvNZ9_FlC1upSQAxGc2a-58" value="PRODUCT_TYPE_ID" style="text;strokeColor=none;fillColor=none;align=left;verticalAlign=top;spacingLeft=4;spacingRight=4;overflow=hidden;rotatable=0;points=[[0,0.5],[1,0.5]];portConstraint=eastwest;" vertex="1" parent="ZvNZ9_FlC1upSQAxGc2a-50">
          <mxGeometry y="208" width="140" height="26" as="geometry" />
        </mxCell>
        <mxCell id="Fr1E9OPYCrHmNysL7G3M-8" value="Shipment_Record_ID" style="ellipse;whiteSpace=wrap;html=1;rounded=0;fillColor=#FFFFFF;" vertex="1" parent="1">
          <mxGeometry x="170" y="643.75" width="120" height="56.25" as="geometry" />
        </mxCell>
        <mxCell id="ZvNZ9_FlC1upSQAxGc2a-59" value="PRODUCT_TYPE" style="swimlane;fontStyle=0;childLayout=stackLayout;horizontal=1;startSize=26;fillColor=none;horizontalStack=0;resizeParent=1;resizeParentMax=0;resizeLast=0;collapsible=1;marginBottom=0;" vertex="1" parent="1">
          <mxGeometry x="920" y="1654" width="140" height="104" as="geometry" />
        </mxCell>
        <mxCell id="ZvNZ9_FlC1upSQAxGc2a-60" value="PRODUCT_TYPE_ID" style="text;strokeColor=none;fillColor=none;align=left;verticalAlign=top;spacingLeft=4;spacingRight=4;overflow=hidden;rotatable=0;points=[[0,0.5],[1,0.5]];portConstraint=eastwest;" vertex="1" parent="ZvNZ9_FlC1upSQAxGc2a-59">
          <mxGeometry y="26" width="140" height="26" as="geometry" />
        </mxCell>
        <mxCell id="ZvNZ9_FlC1upSQAxGc2a-61" value="HIERARCHY" style="text;strokeColor=none;fillColor=none;align=left;verticalAlign=top;spacingLeft=4;spacingRight=4;overflow=hidden;rotatable=0;points=[[0,0.5],[1,0.5]];portConstraint=eastwest;" vertex="1" parent="ZvNZ9_FlC1upSQAxGc2a-59">
          <mxGeometry y="52" width="140" height="26" as="geometry" />
        </mxCell>
        <mxCell id="ZvNZ9_FlC1upSQAxGc2a-62" value="Description" style="text;strokeColor=none;fillColor=none;align=left;verticalAlign=top;spacingLeft=4;spacingRight=4;overflow=hidden;rotatable=0;points=[[0,0.5],[1,0.5]];portConstraint=eastwest;" vertex="1" parent="ZvNZ9_FlC1upSQAxGc2a-59">
          <mxGeometry y="78" width="140" height="26" as="geometry" />
        </mxCell>
        <mxCell id="Fr1E9OPYCrHmNysL7G3M-10" value="ORDER_ITEM" style="shape=ext;margin=3;double=1;whiteSpace=wrap;html=1;align=center;strokeColor=#000000;fillColor=#FFFFFF;" vertex="1" parent="1">
          <mxGeometry x="290" y="479.9999999999999" width="140" height="45" as="geometry" />
        </mxCell>
        <mxCell id="ZvNZ9_FlC1upSQAxGc2a-63" style="edgeStyle=orthogonalEdgeStyle;rounded=0;orthogonalLoop=1;jettySize=auto;html=1;endArrow=none;endFill=0;" edge="1" parent="1" source="ZvNZ9_FlC1upSQAxGc2a-9" target="ZvNZ9_FlC1upSQAxGc2a-11">
          <mxGeometry relative="1" as="geometry" />
        </mxCell>
        <mxCell id="Fr1E9OPYCrHmNysL7G3M-11" value="Item" style="ellipse;whiteSpace=wrap;html=1;rounded=0;fillColor=#FFFFFF;" vertex="1" parent="1">
          <mxGeometry x="585" y="600" width="60" height="26.25" as="geometry" />
        </mxCell>
        <mxCell id="ZvNZ9_FlC1upSQAxGc2a-64" style="edgeStyle=orthogonalEdgeStyle;rounded=0;orthogonalLoop=1;jettySize=auto;html=1;entryX=0;entryY=0.269;entryDx=0;entryDy=0;entryPerimeter=0;endArrow=none;endFill=0;" edge="1" parent="1" source="ZvNZ9_FlC1upSQAxGc2a-20" target="ZvNZ9_FlC1upSQAxGc2a-7">
          <mxGeometry relative="1" as="geometry" />
        </mxCell>
        <mxCell id="ZvNZ9_FlC1upSQAxGc2a-65" style="edgeStyle=orthogonalEdgeStyle;rounded=0;orthogonalLoop=1;jettySize=auto;html=1;entryX=0;entryY=0.731;entryDx=0;entryDy=0;entryPerimeter=0;endArrow=none;endFill=0;" edge="1" parent="1" source="ZvNZ9_FlC1upSQAxGc2a-21" target="ZvNZ9_FlC1upSQAxGc2a-11">
          <mxGeometry relative="1" as="geometry">
            <Array as="points">
              <mxPoint x="190" y="1539" />
              <mxPoint x="190" y="1203" />
            </Array>
          </mxGeometry>
        </mxCell>
        <mxCell id="ZvNZ9_FlC1upSQAxGc2a-66" style="edgeStyle=orthogonalEdgeStyle;rounded=0;orthogonalLoop=1;jettySize=auto;html=1;endArrow=none;endFill=0;" edge="1" parent="1" source="ZvNZ9_FlC1upSQAxGc2a-22" target="ZvNZ9_FlC1upSQAxGc2a-25">
          <mxGeometry relative="1" as="geometry">
            <Array as="points">
              <mxPoint x="210" y="1565" />
              <mxPoint x="210" y="1507" />
            </Array>
          </mxGeometry>
        </mxCell>
        <mxCell id="ZvNZ9_FlC1upSQAxGc2a-67" style="edgeStyle=orthogonalEdgeStyle;rounded=0;orthogonalLoop=1;jettySize=auto;html=1;endArrow=none;endFill=0;" edge="1" parent="1" source="ZvNZ9_FlC1upSQAxGc2a-23" target="ZvNZ9_FlC1upSQAxGc2a-30">
          <mxGeometry relative="1" as="geometry" />
        </mxCell>
        <mxCell id="ZvNZ9_FlC1upSQAxGc2a-68" style="edgeStyle=orthogonalEdgeStyle;rounded=0;orthogonalLoop=1;jettySize=auto;html=1;endArrow=none;endFill=0;" edge="1" parent="1" source="ZvNZ9_FlC1upSQAxGc2a-45" target="ZvNZ9_FlC1upSQAxGc2a-25">
          <mxGeometry relative="1" as="geometry" />
        </mxCell>
        <mxCell id="ZvNZ9_FlC1upSQAxGc2a-69" style="edgeStyle=orthogonalEdgeStyle;rounded=0;orthogonalLoop=1;jettySize=auto;html=1;endArrow=none;endFill=0;" edge="1" parent="1" source="ZvNZ9_FlC1upSQAxGc2a-5" target="ZvNZ9_FlC1upSQAxGc2a-34">
          <mxGeometry relative="1" as="geometry">
            <Array as="points">
              <mxPoint x="665" y="1505" />
              <mxPoint x="665" y="1637" />
            </Array>
          </mxGeometry>
        </mxCell>
        <mxCell id="ZvNZ9_FlC1upSQAxGc2a-70" style="edgeStyle=orthogonalEdgeStyle;rounded=0;orthogonalLoop=1;jettySize=auto;html=1;entryX=0.007;entryY=0.538;entryDx=0;entryDy=0;entryPerimeter=0;endArrow=none;endFill=0;" edge="1" parent="1" source="ZvNZ9_FlC1upSQAxGc2a-40" target="ZvNZ9_FlC1upSQAxGc2a-51">
          <mxGeometry relative="1" as="geometry" />
        </mxCell>
        <mxCell id="ZvNZ9_FlC1upSQAxGc2a-71" style="edgeStyle=orthogonalEdgeStyle;rounded=0;orthogonalLoop=1;jettySize=auto;html=1;endArrow=none;endFill=0;" edge="1" parent="1" source="ZvNZ9_FlC1upSQAxGc2a-58" target="ZvNZ9_FlC1upSQAxGc2a-60">
          <mxGeometry relative="1" as="geometry">
            <Array as="points">
              <mxPoint x="1090" y="1449" />
              <mxPoint x="1090" y="1693" />
            </Array>
          </mxGeometry>
        </mxCell>
        <mxCell id="ZvNZ9_FlC1upSQAxGc2a-72" style="edgeStyle=orthogonalEdgeStyle;rounded=0;orthogonalLoop=1;jettySize=auto;html=1;entryX=1;entryY=0.885;entryDx=0;entryDy=0;entryPerimeter=0;endArrow=none;endFill=0;" edge="1" parent="1" source="ZvNZ9_FlC1upSQAxGc2a-4" target="ZvNZ9_FlC1upSQAxGc2a-25">
          <mxGeometry relative="1" as="geometry" />
        </mxCell>
        <mxCell id="ZvNZ9_FlC1upSQAxGc2a-73" style="edgeStyle=orthogonalEdgeStyle;rounded=0;orthogonalLoop=1;jettySize=auto;html=1;endArrow=none;endFill=0;" edge="1" parent="1" source="ZvNZ9_FlC1upSQAxGc2a-3" target="ZvNZ9_FlC1upSQAxGc2a-38">
          <mxGeometry relative="1" as="geometry" />
        </mxCell>
        <mxCell id="ZvNZ9_FlC1upSQAxGc2a-79" style="edgeStyle=orthogonalEdgeStyle;rounded=0;orthogonalLoop=1;jettySize=auto;html=1;exitX=0.5;exitY=0;exitDx=0;exitDy=0;endArrow=none;endFill=0;" edge="1" parent="1" source="ZvNZ9_FlC1upSQAxGc2a-75" target="ZvNZ9_FlC1upSQAxGc2a-76">
          <mxGeometry relative="1" as="geometry" />
        </mxCell>
        <mxCell id="ZvNZ9_FlC1upSQAxGc2a-82" style="edgeStyle=orthogonalEdgeStyle;rounded=0;orthogonalLoop=1;jettySize=auto;html=1;exitX=0.5;exitY=1;exitDx=0;exitDy=0;endArrow=none;endFill=0;" edge="1" parent="1" source="ZvNZ9_FlC1upSQAxGc2a-75">
          <mxGeometry relative="1" as="geometry">
            <mxPoint x="515" y="690" as="targetPoint" />
          </mxGeometry>
        </mxCell>
        <mxCell id="ZvNZ9_FlC1upSQAxGc2a-75" value="SHIPMENT_RECORD" style="shape=ext;margin=3;double=1;whiteSpace=wrap;html=1;align=center;strokeColor=#000000;fillColor=#FFFFFF;" vertex="1" parent="1">
          <mxGeometry x="455" y="625" width="165" height="45" as="geometry" />
        </mxCell>
        <mxCell id="ZvNZ9_FlC1upSQAxGc2a-80" style="edgeStyle=orthogonalEdgeStyle;rounded=0;orthogonalLoop=1;jettySize=auto;html=1;exitX=0.5;exitY=0;exitDx=0;exitDy=0;endArrow=none;endFill=0;" edge="1" parent="1" source="ZvNZ9_FlC1upSQAxGc2a-76">
          <mxGeometry relative="1" as="geometry">
            <Array as="points">
              <mxPoint x="488" y="540" />
              <mxPoint x="340" y="540" />
            </Array>
          </mxGeometry>
        </mxCell>
        <mxCell id="ZvNZ9_FlC1upSQAxGc2a-76" value="&lt;font color=&quot;#007fff&quot;&gt;CONTAINS&lt;/font&gt;" style="shape=rhombus;double=1;perimeter=rhombusPerimeter;whiteSpace=wrap;html=1;align=center;strokeColor=#000000;fillColor=#FFFFFF;" vertex="1" parent="1">
          <mxGeometry x="427.5" y="527.5" width="120" height="60" as="geometry" />
        </mxCell>
        <mxCell id="ZvNZ9_FlC1upSQAxGc2a-78" style="edgeStyle=orthogonalEdgeStyle;rounded=0;orthogonalLoop=1;jettySize=auto;html=1;exitX=0.5;exitY=1;exitDx=0;exitDy=0;endArrow=none;endFill=0;" edge="1" parent="1" source="ZvNZ9_FlC1upSQAxGc2a-77" target="ZvNZ9_FlC1upSQAxGc2a-75">
          <mxGeometry relative="1" as="geometry" />
        </mxCell>
        <mxCell id="ZvNZ9_FlC1upSQAxGc2a-77" value="&lt;font color=&quot;#007fff&quot;&gt;CONTAINS&lt;/font&gt;" style="shape=rhombus;double=1;perimeter=rhombusPerimeter;whiteSpace=wrap;html=1;align=center;strokeColor=#000000;fillColor=#FFFFFF;" vertex="1" parent="1">
          <mxGeometry x="190" y="604.62" width="120" height="60" as="geometry" />
        </mxCell>
        <mxCell id="ZvNZ9_FlC1upSQAxGc2a-83" style="edgeStyle=orthogonalEdgeStyle;rounded=0;orthogonalLoop=1;jettySize=auto;html=1;exitX=0.5;exitY=1;exitDx=0;exitDy=0;endArrow=none;endFill=0;" edge="1" parent="1" source="ZvNZ9_FlC1upSQAxGc2a-81" target="BIAA3tRsBqz8I-IRi0Bk-104">
          <mxGeometry relative="1" as="geometry" />
        </mxCell>
        <mxCell id="ZvNZ9_FlC1upSQAxGc2a-81" value="&lt;font color=&quot;#007fff&quot;&gt;CONTAINS&lt;/font&gt;" style="shape=rhombus;double=1;perimeter=rhombusPerimeter;whiteSpace=wrap;html=1;align=center;strokeColor=#000000;fillColor=#FFFFFF;" vertex="1" parent="1">
          <mxGeometry x="455" y="684" width="120" height="60" as="geometry" />
        </mxCell>
        <mxCell id="ZvNZ9_FlC1upSQAxGc2a-84" style="edgeStyle=none;orthogonalLoop=1;jettySize=auto;html=1;entryX=0;entryY=0.5;entryDx=0;entryDy=0;fontColor=#007FFF;endArrow=none;" edge="1" target="ZvNZ9_FlC1upSQAxGc2a-85" parent="1" source="ZvNZ9_FlC1upSQAxGc2a-75">
          <mxGeometry relative="1" as="geometry">
            <mxPoint x="575" y="624.9999999999999" as="sourcePoint" />
          </mxGeometry>
        </mxCell>
        <mxCell id="ZvNZ9_FlC1upSQAxGc2a-85" value="Record_ID" style="ellipse;whiteSpace=wrap;html=1;rounded=0;fillColor=#FFFFFF;" vertex="1" parent="1">
          <mxGeometry x="630" y="536.25" width="90" height="42.5" as="geometry" />
        </mxCell>
      </root>
    </mxGraphModel>
  </diagram>
</mxfile>
